<?xml version="1.0" encoding="UTF-8"?>
<svg id="Layer_1" data-name="Layer 1" xmlns="http://www.w3.org/2000/svg" viewBox="0 0 1024 1024">
  <defs>
    <style>
      .cls-1 {
        fill: #a4581c;
      }

      .cls-2 {
        fill: #6f7379;
      }

      .cls-3 {
        fill: #3d2007;
      }

      .cls-4 {
        fill: #fbf9f4;
      }

      .cls-5 {
        fill: #c65804;
      }

      .cls-6 {
        fill: #2c1808;
      }

      .cls-7 {
        fill: #1a1d20;
      }

      .cls-8 {
        fill: #bb763c;
      }

      .cls-9 {
        fill: #bdc1c4;
      }

      .cls-10 {
        fill: none;
        stroke: #565656;
      }

      .cls-10, .cls-11, .cls-12 {
        stroke-miterlimit: 10;
      }

      .cls-11 {
        fill: #ea8015;
      }

      .cls-11, .cls-12 {
        stroke: #000;
        stroke-width: 7px;
      }

      .cls-13 {
        fill: #d1d4d7;
      }

      .cls-14 {
        fill: #d6730e;
      }

      .cls-15 {
        fill: #f5dab9;
      }

      .cls-12 {
        fill: #fff;
      }

      .cls-16 {
        fill: #d8801d;
      }

      .cls-17 {
        fill: #e8aa21;
      }

      .cls-18 {
        fill: #f3860d;
      }

      .cls-19 {
        fill: #dfdfe1;
      }

      .cls-20 {
        fill: #d8dadb;
      }

      .cls-21 {
        fill: #a3a6a9;
      }

      .cls-22 {
        fill: #f39025;
      }

      .cls-23 {
        fill: #f8bb12;
      }

      .cls-24 {
        fill: #46494a;
      }

      .cls-25 {
        fill: #dfb737;
      }

      .cls-26 {
        fill: #e8eae5;
      }

      .cls-27 {
        fill: #e3b12f;
      }
    </style>
  </defs>
  <g id="Outline">
    <path class="cls-7" d="M50.48,651.18l9.23,6.45s.05.04.08.06c.86.55,14.57,9.37,19.55,11.79,4.56,2.22,18.94,7.23,18.94,7.23,4.37,1.63,7.91,2.95,12.29,3.61l22.64,3.85,26.43,3.12s.09.01.14.03l9.85,2.77c.13.04.25.1.36.19,6.28,5.56,13.69,15.8,15.94,17.82.03.03.05.05.08.08,3.08,3.8,7.11,7.11,9.72,9.5h0s5.96,6.09,7.21,7.36c.15.15.35.23.56.23l31.88.14c.24,0,.47-.09.63-.26,4.73-4.72,9.67-9.3,14.74-13.68,1.91-1.63,3.82-3.33,5.73-5.09,3.04-2.76,6.01-5.52,9.06-8.28,1.19-1.05,2.31-2.03,3.43-3.08.03-.02.05-.05.07-.08l.06-.07c2.17-2.63,5.02-4.64,8.29-5.63,3.44-1.04,7.07-1.49,10.87-1.33,16.63,0,35.45-3.82,50.81-10.05.42-.21.92-.35,1.42-.57,9.34-3.82,18.4-7.85,26.96-13.3.5-.28.92-.57,1.34-.85,5.45-3.54,10.61-7.43,15.57-11.68.71-.57,1.42-1.2,2.12-1.77,3.68-3.04,7.08-6.23,10.47-9.62l1.63-1.63c2.62-2.62,5.24-5.24,7.71-8,1.73-2,4.53-7.71,6.3-9.74.08-.1.15-.2.18-.32l3.08-10.04c.02-.07.04-.15.04-.23l.33-8.43c0-.06,0-.12,0-.17-1.16-8.09-4.99-14.51-16.36-28.09-1.27-1.49-2.55-2.97-3.75-4.53-4.46-5.59-9.27-10.4-14.58-15.14-.71-.57-1.42-1.2-2.05-1.77-12.03-10.61-27.74-25.54-43.45-30.21-.16-.03-.34-.08-.52-.12-.36-.08-.61-.4-.61-.76h0c0-.4.3-.74.7-.78.78-.08,1.65-.28,2.62-.6,7.01-2.48,14.01-4.32,21.16-6.16,1.77-.5,3.54-.92,5.31-1.42,9.34-2.31,18.75-4.29,28.23-5.94l4.33-.85c.92-.18,1.64-.91,1.81-1.83l3.47-18.8c.16-.84-.36-1.66-1.18-1.89l-6.95-1.92s-.04-.01-.06-.02l-4.43-1.55c-.36-.13-.6-.47-.6-.85v-.46c0-.51.43-.92.94-.9l4.72.23h5.67c1.82,0,3.38-1.29,3.73-3.07l1.91-9.79c.27-1.39-.15-2.82-1.12-3.84h0s-1.84-1.84-1.84-1.84c-.99-.99-1.98-1.98-2.97-2.97-1.77-1.7-3.47-3.47-5.24-5.24s-3.61-3.61-5.38-5.38c-2.97-2.97-5.94-6.01-8.92-8.99-1.7-1.77-3.47-3.54-5.24-5.31-.99-.99-2.05-1.98-3.04-3.04-.5-.5-.99-1.06-1.49-1.56l-1.49-1.63c-.8-.94-1.06-1.89-.78-2.83.38-1.23,1.37-5.45,2.97-12.67l.99-4.39c1.74-7.73,4.78-16.35,4.27-24.38-.02-.25-.14-.48-.34-.64-.88-.74-1.83-1.5-2.25-2.39-.47-.99-.44-2.41-.06-3.49.9-3.79,1.73-7.63,2.65-11.38.14-.57.28-1.2.42-1.77,1.63-7.15,2.54-14.62,3.67-21.84.07-.71.21-1.34.28-2.05,1.7-10.61.44-21.22.44-31.9v-1.98c-.07-10.9-.48-19.42-2.11-30.25-.14-.71-.21-1.34-.35-1.98-2.12-13.09-3.23-26.37-7.34-39.04-.24-.61-.45-1.23-.64-1.84-.67-1.94-1.61-3.47-2.45-5.26-.1-.21-.27-.37-.48-.46-1.47-.57-3.6-.27-5.2.17-.05.01-.1.03-.14.05-.54.21-2.36,1.21-2.9,1.42-.66.24-1.3.5-1.91.78-.64.35-1.34.64-1.98.92-28.23,12.38-50.31,26.31-73.59,46.69-.71.64-1.42,1.27-2.12,1.91-3.61,3.11-7.08,6.37-10.4,9.76-.42.42-.85.85-1.2,1.27-.38.42-.75.83-1.13,1.2-1.37,1.43-2.67,2.33-4.42,3.18-.29.14-.63.11-.89-.06-3.76-2.52-7.58-4.97-11.53-7.22-.71-.35-1.42-.78-2.05-1.13-7.22-4.03-14.51-7.85-22.08-11.18l-1.49-.64c-.74-.33-1.41-.67-2.08-1-.08-.04-.16-.07-.25-.08-2.4-.45-3.87.11-6.02,1.09l-1.56.78c-10.05,4.74-20.03,9.76-29.51,15.57-2.42,1.5-4.77,2.88-7.4,3.92-.39.15-.82,0-1.07-.33-.79-1.08-1.6-1.86-2.42-2.35-.05-.03-.11-.06-.16-.08-.26-.11-.51-.2-.75-.3-.28-.12-.5-.37-.54-.68-.1-.78-.47-1.53-1.1-2.24l-1.7-1.56c-7.78-7.36-15.85-14.51-24.27-21.16-.64-.5-1.27-.99-1.91-1.49-10.33-8.14-21.16-15.35-32.83-21.37l-2.55-1.27c-6.93-3.75-14.08-6.86-21.37-9.84-.52-.24-1.04-.45-1.56-.64-5.68-2.37-11.36-3.96-17.28-5.58-.46-.13-.95.13-1.1.59l-9.82,30.65s-.02.08-.03.13c-.21,1.25-.42,2.5-.63,3.76-6.51,35.31-6.23,75.08,6.23,109.18,1.35,3.58,2.44,6.77,2.91,10.56.04.34-.12.67-.4.86l-1.31.87c-.23.15-.38.39-.4.66-.16,1.97.12,4.83.82,8.56.14.64.21,1.2.35,1.84,1.2,6.09,2.55,12.03,3.96,18.04,1.18,4.86,2.36,9.64,2.67,14.7.01.2-.04.4-.15.56-.85,1.3-1.73,2.42-2.66,3.35l-1.7,1.7-3.04,3.04c-.78.71-1.49,1.42-2.19,2.12l-4.53,4.53-5.87,5.87-4.6,4.6-2.19,2.19c-1.97,1.97-4.13,3.53-6.1,5.49-.03.03-.06.06-.09.08l-4.98,3.62s-.04.03-.06.04c-1.72,1.47-1.22.93-3.65,2.61-.36.25-.65,1.25-.39,1.61l4.01,10.92s.24.61.27.65c.5.63,1.78,1,2.58,1l7.86.06c.75.07.99,1.04.35,1.44l-8.67,3.73c-.94.41-1.51,1.39-1.39,2.41l2,17c.12,1.02.9,1.84,1.92,2.01,17,2.79,34.33,6.39,50.55,12,2.83.99,5.52,1.84,8.35,2.48.63.14,12.62,1.93,13.25,2.04.37.07.65.39.65.77v.17c0,.35-.23.65-.57.75l-18.67,10.05c-5.09,2.97-10,4.44-14.81,7.77-1.91,1.27-3.69,2.59-5.6,3.79-4.32,2.69-6.99,6.1-11.02,9.21-1.27.99-3.89,3.16-5.24,4.16l-18.01,14.81c-3.25,2.74-3.69,4.31-9.64,10.3-.85.85-2.98,2.93-3.73,4.33-2.14,3.11-4.28,5.12-3.73,12.59.07.97.61,2.71.72,3.67l.54,3.31c.09.77.69,2.15.9,2.89l3.95,11.74s.03.09.06.13l2.74,5.24,3.59,6.59s.03.05.04.07c3.16,4.7,4.25,5.82,7.9,10.17.02.02.04.04.05.06l3.17,3.17s.08.07.12.1l5.84,5.25Z"/>
  </g>
  <g id="Body_Middle">
    <path class="cls-19" d="M171.62,589.96c-7.78-7.78-8.14-17.41-8.21-27.88,0-7.01.85-13.66,2.41-20.52"/>
    <path class="cls-19" d="M165.68,541.56c7.93,2.76,15.21,9.98,20.8,15.99,7.78,8.28,17.41,11.53,28.45,12.6,10.68.28,24.06-1.84,32.05-9.48,1.27-1.34,2.48-2.76,3.68-4.17,4.1-4.67,9.06-8.21,14.22-11.53,1.27-.8,2.43-1.63,3.47-2.48s1.93-1.16,2.69-.92c3.47,13.02,5.17,31.35-.71,43.87-2.19,3.54-4.81,6.79-7.5,10.05-1.42,1.77-2.62,3.61-3.82,5.52-2.19,3.33-4.39,6.58-6.72,9.76-3.54,5.02-6.93,10.05-10.33,15.14-3.54,5.31-7.08,10.54-10.83,15.64-1.56,2.12-2.97,4.32-4.39,6.51-.42.71-.92,1.34-1.34,2.05-.92,1.34-1.77,2.76-2.69,4.1-.42.64-.78,1.27-1.2,1.84-.35.57-.71,1.13-1.13,1.7-.28.42-.64.78-.92,1.2h-1.42l-.92-1.7c-3.54-6.37-7.36-12.52-11.25-18.68-.35-.5-.64-1.06-.99-1.56-.78-1.2-1.7-2.41-2.55-3.54-1.91-3.4-1.77-6.86-1.91-10.68"/>
    <path class="cls-4" d="M171.32,556.65c.08,0,.14,0,.21-.01.13,0,.26,0,.4,0,.27.01.54.1.79.13.61.07,1.16.74,1.7,1,2.36,1.11,4.3,3.08,6.38,4.76,1.06.85,2.2,1.61,3.26,2.38,1.49,1.13,3.1,2.23,4.51,3.43,5.38,4.25,9.49,6.29,16.21,7.28,1.37.19,2.26.56,2.88.57l10.48.39-.12,64.84c-.91-1.11-1.86-2.75-2.62-3.68-.98-1.22-1.82-2.48-2.74-4.12-.5-.85-.92-1.63-1.42-2.48-.71-1.27-1.49-2.55-2.19-3.89-3.25-5.8-6.86-10.83-11.53-15.64-.64-.71-1.34-1.42-1.98-2.12-1.06-1.13-2.05-2.26-3.11-3.4-.9-1.04-1.97-2.04-2.69-2.87-1.23-1.34-1.2-2.16-2.9-2.94-.75-.75-1.49-1.56-2.19-2.41-1.49-1.77-2.97-3.47-4.53-5.09-4.03-4.17-6.37-7.29-7.36-13.02-.14-.57-.28-1.06-.42-1.63-1.47-6.2-1.27-12.59-1.1-18.94.02-.67.06-1.33.07-2.01l.02-.55Z"/>
    <path class="cls-9" d="M165.66,541.65c7.93,2.76,15.21,9.98,20.8,15.99,7.78,8.28,17.41,11.53,28.45,12.6,10.68.28,24.06-1.84,32.05-9.48,1.27-1.34,2.48-2.76,3.68-4.17,4.1-4.67,9.06-8.21,14.22-11.53,1.27-.8,2.43-1.63,3.47-2.48s1.93-1.16,2.69-.92c3.47,13.02,5.17,31.35-.71,43.87-2.19,3.54-4.81,6.79-7.5,10.05-1.42,1.77-2.62,3.61-3.82,5.52-2.19,3.33-4.39,6.58-6.72,9.76-3.54,5.02-6.93,10.05-10.33,15.14-3.54,5.31-7.08,10.54-10.83,15.64-1.56,2.12-2.97,4.32-4.39,6.51-.42.71-.92,1.34-1.34,2.05-.92,1.34-1.77,2.76-2.69,4.1-.42.64-.78,1.27-1.2,1.84-.35.57-.71,1.13-1.13,1.7-.28.42-.64.78-.92,1.2h-1.42l-.92-1.7c-3.54-6.37-7.36-12.52-11.25-18.68-.35-.5-.64-1.06-.99-1.56-.78-1.2-1.7-2.41-2.55-3.54l-26.75-37.79-3.96-5.73c-7.78-7.78-8.14-17.41-8.21-27.88,0-7.01.85-13.66,2.41-20.52M171.3,557.16c-.54,11.06,2.02,20.21,6.13,30.07.3.73.79,1.54,1.26,2.17.72.95,1.18,1.96,2.11,2.83.57.57,1.06,1.18,1.63,1.75.92.92,1.56,2.17,2.55,3.02.8.85,1.58,1.79,2.34,2.83.35.42.84.89,1.19,1.32l.99.96c.38.36.27.3.59.63,1.13,1.55,1.97,2.25,3.31,3.45,7.08,6.93,12.38,14.79,17.34,23.35,2.31,4.01,4.74,7.97,7.29,11.89,1.98-1.84,3.47-3.68,4.88-5.94.35-.64.78-1.2,1.13-1.84.35-.64.78-1.27,1.2-1.91.25-.37.49-.76.74-1.15,2.02-3.32,4.04-6.64,6.06-9.96,3.33-5.66,6.93-10.12,11.67-14.64,2.55-2.41,4.6-5.09,6.79-7.78,2.41-2.97,5.02-5.66,7.64-8.42,7.71-9.13,7.01-21.16,6.72-32.48-5.24,2.76-9.69,6.37-14.29,10.05-10.47,8.14-20.52,9.27-33.61,9.34h-2.62c-4.25,0-7.88-.03-11.84-1.37-.92-.14-1.89-.47-2.88-.61-4.6-1.06-8.21-4.17-11.89-7.01-2.26-1.77-4.6-3.47-6.93-5.17-1.2-.92-2.41-1.77-3.61-2.69-.57-.42-1.13-.85-1.7-1.27-.5-.35-.99-.71-1.49-1.13-.8-.61-1.7-.87-2.69-.78l-.02.5Z"/>
  </g>
  <g id="Ears">
    <path class="cls-19" d="M72.98,230.93c7.71,2.97,11.6,6.51,15.99,13.44,1.77,2.69,3.82,5.17,5.8,7.71,6.72,8.63,13.23,17.41,19.74,26.25,2.97,4.03,5.94,8.07,8.99,12.03,3.25,4.32,6.37,8.63,9.55,12.88,3.25,4.46,6.58,8.92,9.91,13.3-2.34,3.04-4.67,5.31-7.78,7.57-3.25,2.41-6.44,4.95-9.48,7.64-7.43,6.37-15.21,12.24-23.07,18.11l-1.42-.71c.78-1.2,1.56-2.34,2.41-3.54.42-.66.87-1.32,1.34-1.98.42-.5.78-.99,1.2-1.56h1.42v-2.12h-25.47c1.84-1.84,3.25-3.25,5.31-4.74.42-.35.92-.71,1.42-1.06s.99-.71,1.49-1.06c.99-.78,2.05-1.49,3.04-2.26.5-.35.99-.78,1.49-1.13,2.12-1.56,4.25-3.18,6.44-4.81,1.2-.85,2.34-1.77,3.54-2.69-1.27-1.27-3.04-.92-4.81-1.06-.85,0-1.7-.14-2.55-.14s-1.77-.14-2.69-.14c-7.03-.47-11.96-.94-14.79-1.42,2.55-2.55,6.16-3.4,9.41-4.67,1.34-.5,2.62-1.06,3.96-1.56,5.8-2.26,11.68-4.1,17.76-5.8,1.2-.35,2.41-.71,3.61-1.06.5-.14.99-.28,1.56-.5.5-.14.99-.28,1.49-.42.5-.14,1.06-.28,1.63-.5,1.27-.35,2.55-.78,3.82-1.13-2.05-1.06-3.96-1.84-6.23-2.48-.64-.21-1.34-.42-1.98-.57-.71-.21-1.42-.42-2.12-.64-7.57-2.26-14.93-4.81-22.22-7.64v-.71c7.93-.71,15.94-1.42,24.06-2.12l-4.95-5.66c-1.42-1.77-2.76-3.61-4.1-5.38-2.76-3.75-5.59-7.43-8.42-11.04s-5.66-7.22-8.42-10.97c-2.19-2.9-4.39-5.8-6.58-8.63-.42-.5-.78-.99-1.2-1.56-1.98-2.55-3.96-5.17-6.01-7.71-9.13,24.91-8.99,55.33-5.66,81.37,0,.64.14,1.2.21,1.84,1.63,13.66,5.17,26.32,9.91,39.2.5,1.42.85,2.83,1.2,4.25-1.65.94-3.3,1.89-4.95,2.83-1.2-2.83-2.41-5.66-3.54-8.49-.24-.57-.47-1.16-.71-1.77-2.62-6.72-4.1-13.8-5.66-20.87-.14-.5-.21-.99-.35-1.56-2.76-12.88-3.47-25.76-3.4-38.92v-6.65c0-7.78.28-15.21,1.63-22.93.14-1.13.35-2.34.5-3.47,2.41-16.65,5.31-27.53,8.7-32.62"/>
    <path class="cls-19" d="M358.9,232.73c2.05,1.7,2.62,3.25,3.33,5.8.21.78.42,1.49.64,2.26.21.78.42,1.63.64,2.41l.64,2.48c4.6,17.97,6.23,35.45,6.3,53.99v1.91c0,12.6-.85,24.91-3.47,37.22-.28,1.49-.64,2.9-.92,4.39-1.77,8.63-4.39,16.98-7.22,25.33-2.76-.57-4.25-1.7-6.37-3.54.42-2.62,1.2-4.88,2.26-7.29,7.78-20.1,9.91-42.24,9.98-63.61,0-.61,0-1.25,0-1.91,0-12.45-1.2-24.55-3.04-36.87l-1.06-7.78c-.42-2.48-.99-4.67-1.77-7.08-2.83,2.55-4.88,5.59-7.08,8.63-3.04,4.25-6.09,8.49-9.27,12.67-.35.5-.71.92-1.06,1.42l-2.12,2.76c-1.77,2.34-3.54,4.74-5.31,7.08l-2.12,2.76c-.35.5-.71.92-1.06,1.42-3.18,4.25-6.37,8.49-9.55,12.81.57,0,1.06.07,1.63.14,2.41.14,4.81.35,7.29.57.85,0,1.7.14,2.55.21,4.03.28,8,.64,11.96,1.27-2.19,1.49-4.1,2.19-6.65,2.97-.42.14-.92.28-1.34.42-.92.28-1.91.64-2.83.92-1.42.5-2.83.92-4.25,1.42-11.09,3.68-17.88,5.52-20.38,5.52v1.42c.92.07,1.77.14,2.69.21,3.89.42,7.57,1.27,11.39,2.26.71.21,1.42.35,2.12.57,6.37,1.77,12.38,4.17,18.4,6.86,3.54,1.56,7.08,2.83,10.68,4.17v.71l-24.77,2.83c5.45,4.53,10.9,8.99,16.63,13.23.5.35.99.78,1.49,1.13.42.35.92.64,1.34.99.71.61,1.3,1.39,1.77,2.34h-24.06c2.12,3.25,4.25,6.56,6.37,9.91-8.56,0-21.44-15.14-27.88-20.59-4.25-3.68-8.63-7.17-13.16-10.47.42-2.26,1.2-3.68,2.62-5.45,1.49-1.91,2.97-3.89,4.39-5.87.35-.5.64-.92.99-1.49.35-.5.71-.99,1.06-1.49,3.11-4.46,6.3-8.7,9.62-13.02,2.19-2.83,4.25-5.73,6.3-8.63,3.04-4.25,6.16-8.42,9.34-12.6,3.61-4.67,7.08-9.41,10.54-14.22,2.69-3.75,5.45-7.43,8.21-11.11.92-1.27,1.77-2.55,2.62-3.89,2.9-4.6,5.73-6.72,10.83-8.63"/>
    <path class="cls-18" d="M82.89,235.88c4.1,1.2,7.78,3.04,11.6,4.95.71.35,1.34.71,2.12,1.06,5.59,2.83,10.97,6.01,16.2,9.48,1.13.78,2.26,1.49,3.47,2.19,14.86,9.62,29.08,21.65,40.05,35.59,2.34,2.83,4.81,5.45,7.29,8.14.9,1.04,1.34,2.03,1.34,2.97-1.42,1.2-2.76,2.34-4.25,3.4-.92.71-1.84,1.42-2.69,2.05-.5.35-.92.71-1.49,1.13-2.62,2.05-5.24,4.17-7.78,6.23-.5.42-.99.85-1.49,1.2-1.2.99-2.34,1.91-3.54,2.9-2.55-2.48-4.81-5.02-6.93-7.85-.28-.42-.64-.85-.92-1.2-3.18-4.25-6.3-8.56-9.41-12.88-4.39-6.16-8.84-12.24-13.44-18.19-1.98-2.48-3.82-5.02-5.73-7.57-3.4-4.53-6.79-8.99-10.19-13.44-1.42-1.84-2.83-3.75-4.32-5.66-.92-1.2-1.84-2.34-2.69-3.54-1.2-1.56-2.41-3.18-3.61-4.74l-1.06-1.42c-1.65-2.17-2.48-3.77-2.48-4.81"/>
    <path class="cls-18" d="M351.3,236.8c0,1.22-.6,1.87-1.13,2.53-.61.76-1.21,1.5-2.08,2.64l-1.56,2.12c-.52.71-.8,1.11-.85,1.2-1.77,2.41-3.54,4.88-5.31,7.29-6.65,9.2-13.3,18.33-20.31,27.31-1.98,2.62-3.89,5.24-5.8,7.93-1.42,1.98-2.9,3.96-4.39,5.87-3.04,4.1-6.01,8.21-8.92,12.38-1.84,2.62-3.75,5.17-5.8,7.71-.57.78-1.06,1.56-1.56,2.34-.42.64-.85,1.27-1.27,1.91-4.6-3.4-9.06-7.01-13.44-10.61-1.49-1.2-2.9-2.41-4.39-3.61-1.13-.92-2.26-1.84-3.4-2.76,4.67-13.37,22.36-27.67,33.26-36.09.92-.71,1.84-1.49,2.76-2.19,5.94-4.67,12.03-8.92,18.61-12.67,1.2-.71,2.41-1.42,3.68-2.12,6.86-4.03,13.62-6.95,20.97-10.77l.92-.42Z"/>
    <path class="cls-4" d="M109.21,311.74c1.34.64,2.69,1.34,4.03,1.98.71.33,1.39.68,2.05,1.06,1.7.85,3.4,1.7,5.09,2.55-.99,2.05-1.91,3.54-3.54,5.09l-1.13,1.13c-.66.57-1.46.85-2.41.85v1.42c-.66.66-1.46,1.39-2.41,2.19-.5.42-1.06.85-1.56,1.34-.57.5-1.13.99-1.7,1.49-1.27,1.13-2.55,2.26-3.82,3.4-.61.52-1.23,1.06-1.84,1.63-.61.57-1.32,1.49-2.12,2.76l7.78.71v.71h-25.47c1.77-1.77,3.33-3.25,5.31-4.74.47-.33.94-.68,1.42-1.06.5-.35.99-.71,1.49-1.06.99-.78,2.05-1.49,3.04-2.26.5-.35.99-.71,1.49-1.13,2.12-1.56,4.32-3.18,6.44-4.81,1.2-.85,2.34-1.77,3.54-2.69-1.27-1.27-3.11-.92-4.81-1.06-.85,0-1.7-.14-2.55-.14s-1.77-.14-2.69-.14c-7.03-.47-11.96-.94-14.79-1.42,2.62-2.62,6.37-3.54,9.76-4.81,1.42-.57,2.76-1.06,4.1-1.63.85-.35,1.77-.71,2.62-1.06.78-.28,1.63-.64,2.41-.99,3.89-1.2,6.58-.92,10.19.85"/>
    <path class="cls-4" d="M340.17,312.87c4.74,2.12,9.55,4.03,14.44,5.8v.71c-8.21.92-16.35,1.84-24.77,2.83,5.45,4.53,10.9,8.99,16.63,13.23.5.35.99.78,1.49,1.13.42.35.92.64,1.34.99.71.61,1.3,1.39,1.77,2.34h-24.06v-.71c2.31-.24,4.67-.47,7.08-.71-.5-.42-.92-.85-1.42-1.34-.94-.99-1.42-1.96-1.42-2.9-.42-.14-.78-.28-1.2-.42-1.84-1.06-2.83-2.41-4.1-4.03-1.56-1.84-3.4-3.33-5.24-4.88-1.49-1.27-2.9-2.62-4.32-3.96-.42-.42-.85-.78-1.27-1.2-.57-.71-.85-1.53-.85-2.48.5-.21,1.06-.42,1.56-.64.71-.28,1.42-.57,2.19-.92s1.56-.64,2.34-.99c2.83-1.2,5.59-2.55,8.28-3.96,4.1-1.27,7.78.35,11.53,2.05"/>
    <path class="cls-4" d="M72.98,230.93c7.71,2.97,11.6,6.51,15.99,13.44,1.77,2.69,3.82,5.17,5.8,7.71,7.64,9.76,15,19.74,22.36,29.72.71.99,1.42,1.98,2.19,2.9,1.65,2.22,2.48,3.87,2.48,4.95-.94.75-2.03,1.53-3.25,2.34-2.19,1.49-4.1,2.9-5.94,4.74-2.62,1.77-3.68,1.49-6.65,1.06-3.11-.64-5.94-1.77-8.92-2.9-.64-.21-1.2-.5-1.84-.71-1.49-.57-2.97-1.13-4.46-1.7v-.71c7.93-.71,15.94-1.42,24.06-2.12l-4.95-5.66c-1.42-1.77-2.76-3.61-4.1-5.38-2.76-3.75-5.59-7.43-8.42-11.04s-5.66-7.22-8.42-10.97c-2.19-2.9-4.39-5.8-6.58-8.63-.42-.5-.78-.99-1.2-1.56-1.98-2.55-3.96-5.17-6.01-7.71-9.13,24.91-8.99,55.33-5.66,81.37,0,.64.14,1.2.21,1.84,1.63,13.66,5.17,26.32,9.91,39.2.5,1.42.85,2.83,1.2,4.25-1.65.94-3.3,1.89-4.95,2.83-1.2-2.83-2.41-5.66-3.54-8.49-.24-.57-.47-1.16-.71-1.77-2.62-6.72-4.1-13.8-5.66-20.87-.14-.5-.21-.99-.35-1.56-2.76-12.88-3.47-25.76-3.4-38.92v-6.65c0-7.78.28-15.21,1.63-22.93.14-1.13.35-2.34.5-3.47,2.41-16.65,5.31-27.53,8.7-32.62"/>
    <path class="cls-9" d="M361.68,239.42c1.77,2.62,2.34,5.24,3.11,8.21.14.61.31,1.25.5,1.91,1.2,5.02,2.12,10.12,2.97,15.21.14.71.21,1.42.35,2.12,1.56,9.98,1.7,20.03,1.7,30.14s0,3.89,0,5.87c0,12.03-.92,23.85-3.4,35.59-.28,1.49-.57,2.9-.92,4.39-1.77,8.63-4.39,16.98-7.22,25.33-2.76-.57-4.25-1.7-6.37-3.54.42-2.62,1.2-4.88,2.26-7.29,7.78-20.1,9.91-42.24,9.98-63.61v-1.91c0-12.45-1.2-24.55-3.04-36.87-.28-1.77-.5-3.54-.78-5.38-.42-2.97-.85-5.87-1.34-8.77h2.12v-1.42h.07Z"/>
    <path class="cls-4" d="M358.85,232.34c1.42,1.2,2.05,1.84,2.48,3.75,0,.57.07,1.13.14,1.7,0,.57.07,1.13.14,1.7,0,.42.02.87.07,1.34l-3.54-.71c-.24.33-.5.66-.78.99-.35.5-.71.99-1.06,1.49-.42.57-.78,1.06-1.2,1.63l-2.69,3.61c-2.26,3.04-4.53,6.16-6.79,9.2-4.88,6.65-9.84,13.23-14.79,19.81-1.98,2.62-3.89,5.17-5.87,7.78-.71.92-1.42,1.91-2.12,2.9-.5.71-1.06,1.34-1.56,2.05.57,0,1.06.07,1.63.14,2.41.14,4.81.35,7.29.57.85,0,1.7.14,2.55.21,4.03.28,8,.64,11.96,1.27-3.18,2.12-6.65,3.11-10.19,4.39-.75.28-1.51.57-2.26.85-.71.28-1.42.5-2.19.78-.66.24-1.32.47-1.98.71-1.91.42-2.83.42-4.6-.28-1.2-1.13-2.41-2.34-3.54-3.54-1.98-1.84-3.75-3.4-6.37-4.25.28-3.68,2.26-5.87,4.46-8.7.78-.99,1.56-2.05,2.34-3.04.42-.5.78-1.06,1.2-1.56,1.84-2.34,3.61-4.74,5.38-7.08.35-.5.71-.92,1.06-1.42,3.11-4.1,6.16-8.35,9.13-12.52,2.69-3.75,5.45-7.5,8.28-11.18.92-1.27,1.77-2.55,2.62-3.89,2.9-4.6,5.73-6.72,10.76-8.63"/>
    <path class="cls-9" d="M68.03,262.06h1.42c0,.57-.07,1.13-.14,1.7-1.42,18.82-2.26,37.57.14,56.32,0,.64.14,1.2.21,1.84,1.63,13.66,5.17,26.32,9.91,39.2.5,1.42.85,2.83,1.2,4.25-1.65.94-3.3,1.89-4.95,2.83-1.2-2.83-2.41-5.66-3.54-8.49-.24-.57-.5-1.16-.78-1.77-2.62-6.72-4.1-13.8-5.59-20.87-.14-.5-.21-1.06-.35-1.56-2.97-13.87-3.4-27.67-3.25-41.82v-16.13h.71l.71,10.61c.21-1.42.35-2.83.57-4.32.21-1.42.35-2.76.57-4.17l.35-2.9c.64-5.02,1.34-9.98,2.76-14.86"/>
    <path class="cls-13" d="M62.37,277.63h.71l.71,10.61h.71l-.71,26.18c-1.34-2.69-1.56-3.47-1.56-6.3v-30.5"/>
    <path class="cls-22" d="M351.05,237.41c-.13,1.15-.7,1.68-1.17,2.28-.6.75-1.19,1.52-2.14,2.7-.52.71-1.04,1.39-1.56,2.05-.52.66-1.01,1.32-1.49,1.98-.71.99-1.42,1.98-2.12,2.97-.5.64-.92,1.34-1.42,1.98l-.71-2.83h1.42v-2.12h1.42l-.71-4.25,2.12-.71-2.45-.24,9.05-4.43-.25.61Z"/>
    <path class="cls-13" d="M104.82,343.44l1.42,2.83-3.54,3.54-1.42-.71,3.54-5.66Z"/>
    <path class="cls-14" d="M289.51,278.34c0,2.55-.57,3.11-2.12,5.09-.42.5-.78.99-1.2,1.56-.28.35-.64.78-.92,1.13-.33-.85-.57-1.79-.71-2.83.66-.9,1.46-1.79,2.41-2.69.94-.9,1.42-1.34,1.42-1.34l1.13-.99v.07Z"/>
    <path class="cls-15" d="M139.5,313.01l3.54,3.54-2.83,2.83-.71-6.37Z"/>
    <path class="cls-16" d="M115.44,253.57c1.06.57,2.12,1.13,3.11,1.7.57.33,1.16.64,1.77.92.61.28,1.34,1.06,2.19,2.34l-5.66-1.42v-2.12h-1.42v-1.42Z"/>
    <path class="cls-24" d="M99.16,320.79c1.6-.05,3.25-.05,4.95,0l1.42,1.42c-1.18.71-2.36,1.42-3.54,2.12l-.71-2.12-2.12-1.42Z"/>
    <path class="cls-9" d="M87.13,317.25c-.52.71-1.23,1.42-2.12,2.12-1.75.09-3.4.09-4.95,0,1.91-1.91,4.46-3.4,7.08-2.12"/>
    <path class="cls-7" d="M110.49,343.44l.71,1.42c1.18.33,2.36.57,3.54.71l-1.42,1.42c-1.42-.21-2.83-.42-4.25-.71-1.08.19-2.03.42-2.83.71,1.79-1.84,3.21-3.02,4.25-3.54"/>
    <path class="cls-14" d="M82.89,235.88c2.97.92,5.73,2.05,8.49,3.54-2.19.99-3.04.64-5.45-.14-1.56-.85-2.57-1.98-3.04-3.4"/>
    <path class="cls-20" d="M324.89,344.14c3.54.92,5.38,2.19,7.78,4.95l.71,1.42c-3.18-1.06-6.01-2.69-8.49-4.95v-1.42Z"/>
    <path class="cls-22" d="M82.89,235.88c4.03,1.13,7.64,3.04,11.32,4.95v.71l-3.54.71-.71,3.54c-2.76-2.62-4.95-5.31-7.08-8.49v-1.42Z"/>
    <path class="cls-5" d="M149.4,281.88c2.69,2.62,5.24,5.31,7.78,8.07.35.35.71.78,1.06,1.2,4.48,4.86,6.72,7.9,6.72,9.13-1.49,1.27-2.9,2.41-4.46,3.61-.92.71-1.84,1.42-2.69,2.12-.42.35-.92.71-1.34,1.06-3.11,2.41-6.09,4.88-9.13,7.43l-1.42-.71c.35-2.97,1.49-5.24,2.9-7.85,1.2-2.41,1.49-4.25,1.49-6.86s0-1.34,0-2.05v-4.25c0-3.68-.14-7.22-.78-10.83"/>
    <path class="cls-5" d="M283.85,284h.71v1.27c-.33,9.81,1.56,19.06,5.66,27.74v1.42h1.42l.71,3.54c-4.6-3.4-9.06-7.01-13.44-10.61-1.49-1.2-2.9-2.41-4.39-3.61-1.13-.92-2.26-1.84-3.4-2.76.99-2.9,2.41-4.95,4.39-7.29.57-.64,1.13-1.34,1.7-2.05.57-.64,1.13-1.27,1.7-1.98.5-.57.99-1.13,1.49-1.77,1.65-1.89,2.81-3.18,3.47-3.89"/>
    <path class="cls-13" d="M361.68,246.5h1.42v5.66h-1.42c-.52-2.74-.52-4.62,0-5.66"/>
    <path class="cls-16" d="M351.27,236.8c0,1.42-.88,2.21-1.74,3.34-.5.42-.73,1.05-1.23,1.47v-2.12l-1.35-.58,4.31-2.11Z"/>
    <path class="cls-1" d="M286.68,313.01l4.95,1.42.71,3.54c-.92-.71-1.91-1.42-2.83-2.05-.5-.35-1.06-.78-1.56-1.2-.42-.35-.78-.64-1.27-.99v-.71Z"/>
    <path class="cls-22" d="M343.28,243.66l2.83.71c-1.65,2.31-3.3,4.67-4.95,7.08l-.71-2.83h1.42v-2.12h1.42v-2.83Z"/>
    <path class="cls-19" d="M69.44,253.57h1.42l-1.42,8.49h-1.42l-.71,2.12c.42-3.61,1.2-7.08,2.12-10.61"/>
    <path class="cls-20" d="M361.68,239.42h.71c0,1.13,0,2.26.07,3.47v1.91c-.09,1.13-.61,2.17-1.56,3.11-.92-2.55-1.42-4.32-1.42-7.08h2.12v-1.42h.07Z"/>
    <path class="cls-9" d="M68.03,262.06h1.42c-.07,1.7-.14,3.47-.28,5.17v1.49c-.21,2.62-.35,3.89-1.84,6.09-1.49-4.46-.5-8.35.71-12.74"/>
    <path class="cls-9" d="M68.03,262.06h1.42l-1.42,21.94-2.12.71c-.28-7.85.42-15,2.12-22.64"/>
  </g>
  <g id="Eyes">
    <path class="cls-4" d="M140.98,400.4h1.56c5.24.14,9.98,1.56,14.65,3.89.24.47.47.94.71,1.42-.71.35-1.42.71-2.19,1.06-6.3,3.61-9.13,9.48-11.32,16.13-.71,2.76-.92,5.38-.99,8.21v1.56c.14,5.94,1.91,11.39,3.89,16.91-2.48.42-4.6.57-7.08,0-2.26-1.98-3.54-4.46-4.95-7.08-.42-.71-.78-1.34-1.2-2.05-4.1-7.57-5.38-14.72-5.45-23.21v-1.84c.05-5.9.59-10.07,1.63-12.52,3.33-2.19,6.72-2.48,10.68-2.48"/>
    <path class="cls-19" d="M304.37,402.87c1.7,13.94,1.27,28.02-6.37,40.33-.28.57-.64,1.06-.92,1.63-1.49,2.34-2.41,3.75-5.17,4.53-1.77.21-3.47.28-5.24.21.14-.42.28-.92.42-1.34.21-.64.35-1.2.57-1.84.14-.57.35-1.2.57-1.84.21-.71.42-1.34.64-2.05.28-.78.5-1.49.78-2.26,1.84-7.43,1.77-16.56-1.7-23.49-3.18-4.88-6.44-8.63-11.82-11.04.99-2.05,2.26-2.12,4.39-2.9.71-.21,1.34-.5,2.05-.71,7.29-2.26,14.79-2.12,21.86.78"/>
    <path class="cls-19" d="M157.19,404.29c.24.47.47.94.71,1.42-.71.35-1.42.71-2.19,1.06-5.52,3.18-8.28,8-10.54,13.8-.42.92-.92,1.91-1.42,2.83v-1.42c-.5-.21-.99-.35-1.56-.57-2.05-.92-3.68-1.98-5.52-3.33-2.55-1.84-4.74-3.18-7.85-3.89.42-5.8,1.13-9.81,2.12-12.03,8.14-3.68,18.47-1.77,26.18,2.12"/>
    <path class="cls-4" d="M304.37,413.49c.5,10.76-.71,20.24-6.37,29.72-.28.57-.64,1.06-.92,1.63-1.49,2.34-2.41,3.75-5.17,4.53-1.77.21-3.47.28-5.24.21.14-.42.28-.92.42-1.34.21-.64.35-1.2.57-1.84.14-.57.35-1.2.57-1.84.21-.71.42-1.34.64-2.05.28-.71.57-1.44.85-2.19.57-2.55.57-4.03.28-6.51-.75-7.17-.24-11.84,1.56-14.01,3.33-2.76,8.42-6.3,12.95-6.3"/>
    <path class="cls-4" d="M169.99,416.74c3.11.64,4.53,2.55,6.16,5.09.99,2.69,1.27,4.39.85,7.22-.99,1.98-1.84,2.76-3.54,4.25-3.04.57-4.53.21-7.22-1.13-2.55-2.19-3.75-4.03-4.32-7.36-.21-2.69.14-4.1,1.7-6.37,2.41-1.56,3.61-1.91,6.44-1.7"/>
    <path class="cls-4" d="M266.93,416.32c2.48.85,3.47,1.27,4.88,3.54.57,3.33.78,6.37-.92,9.34-1.49,1.7-2.76,3.04-4.74,4.1-3.44.24-5.78-.07-7.01-.92-1.77-2.76-1.91-5.8-1.49-8.99,1.91-3.89,4.67-7.08,9.27-7.08"/>
    <path class="cls-2" d="M273.94,438.25h.71c-.28,5.66-1.7,9.55-5.09,14.08-2.34,1.7-3.96,2.19-6.86,2.41-.99-.14-2.19-.85-3.61-2.12-2.05-3.4-3.04-6.09-3.33-10.05,0-.71-.07-1.34-.14-2.12,0-.5-.07-1.06-.07-1.56,1.2,1.56,2.19,2.97,3.18,4.67.66,1.23,1.72,2.26,3.18,3.11,3.11.42,4.53.28,7.22-1.49,2.19-2.05,3.47-4.39,4.81-7.01"/>
    <path class="cls-2" d="M159.31,438.25c.38.47.78.97,1.2,1.49.42.52.97,1.2,1.63,2.05l.92,1.13c1.7,2.08,3.82,3.44,6.37,4.1,1.79,0,3.3-.61,4.53-1.84,1.42-1.77,2.55-3.54,3.68-5.52h.71c.28,4.46-.21,8.92-3.04,12.52-1.7,1.56-3.18,2.34-5.38,2.83-3.18-.71-5.02-2.26-7.15-4.74-1.13-2.05-1.98-4.17-2.83-6.37l-.71-1.42v-4.25"/>
    <path class="cls-19" d="M254.48,459.54c.96.16,1.9.34,2.8.56.24.06.43.24.5.47.2.67.37,1.36.52,2.09.05.23-.03.46-.19.63l-.9.9c-.16.16-.38.23-.6.19-.96-.16-1.9-.34-2.8-.56-.24-.06-.43-.24-.5-.47-.2-.67-.37-1.36-.52-2.09-.05-.23.03-.46.19-.63l.9-.9c.16-.16.38-.23.6-.19Z"/>
    <path class="cls-26" d="M178.84,460.12h1.28c.24,0,.45.17.5.41l.52,2.66c.06.29-.14.58-.43.63l-3.11.52c-.33.06-.66-.16-.73-.49-.19-.88-.36-1.73-.51-2.62-.04-.23.06-.45.25-.58.5-.32,1.24-.49,2.24-.53"/>
    <path class="cls-2" d="M273.94,438.25h.71l-.71,6.37-2.12-2.12,2.12-4.25Z"/>
    <path class="cls-2" d="M159.31,438.25c1.56,1.91,2.76,3.33,3.54,5.66h-1.42l-.71,1.42c-1.49-2.41-1.56-4.25-1.42-7.08"/>
  </g>
  <g id="Face_Upper_Part">
    <path class="cls-18" d="M213.13,362.4h6.86c14.08,0,28.02.85,41.89,3.47.92.14,1.84.28,2.76.5,2.19.42,4.32.78,6.44,1.2-4.67,12.03-14.79,23.07-24.06,31.84-.57.64-1.2,1.2-1.77,1.84-1.63,1.56-3.18,2.83-5.02,4.03-.57.35-1.06.71-1.63,1.06-.94.52-1.89.78-2.83.78.28-4.03,1.7-5.59,4.25-8.49l.71-2.12c-5.02,3.89-8.7,7.57-9.55,14.08-.21,2.62-.28,5.24-.35,7.85,15.71-1.84,26.11-10.26,36.8-21.23,0,2.48-.28,2.69-1.84,4.46-.35.42-.78.92-1.2,1.34-.42.5-.85.92-1.27,1.42s-.85.92-1.27,1.42c-.85.92-1.7,1.91-2.55,2.83-.92.99-1.77,1.98-2.69,2.97-4.6,4.95-11.25,10.33-18.11,11.04h-4.39c2.62,2.55,5.73,2.9,9.2,3.54.05,3.02-.07,5.24-.35,6.65-2.26,11.39-.14,22.36,3.89,32.97v1.42l-4.95-.71c.92.71,1.91,1.34,2.83,2.05.57.35,1.06.78,1.56,1.13,2.48,1.34,4.74,2.41,7.64,2.48,1.84-1.13,2.97-1.98,4.46-3.47.78-.71,1.63-1.49,2.41-2.19.42-.35.78-.71,1.2-1.06,12.95-11.46,32.05-13.3,48.54-15.14v-1.42h-4.17c-.75,0-1.53.02-2.34.07-.8.05-1.93-.47-3.4-1.56.28-.42.57-.85.85-1.27,8.49-13.66,12.03-28.3,15-43.87.35-1.7.71-3.4,1.13-5.02-.35-.14-.78-.28-1.13-.35-.57-.14-1.06-.35-1.63-.57s-1.13-.35-1.77-.57c-1.2-.35-2.34-.78-3.54-1.2-.57-.21-1.06-.35-1.63-.57-.5-.14-.99-.35-1.49-.5-3.33-.92-6.51-1.27-9.98-1.27-.75,0-1.51,0-2.26,0-.8,0-1.58,0-2.34,0h-8.21c1.84-1.91,3.68-3.54,5.87-5.02.57-.38,1.16-.78,1.77-1.2.57-.42,1.2-.78,1.84-1.2.57-.42,1.2-.78,1.77-1.2,1.13-.78,2.34-1.56,3.47-2.34,1.27-.85,2.55-1.84,3.75-2.83,2.76-1.49,4.81-1.2,7.71-.35,2.9,1.06,5.73,2.19,8.56,3.47.78.28,1.49.64,2.26.99,1.42.64,2.9,1.2,4.32,1.84s2.83,1.13,4.25,1.7c2.83,1.91,3.82,4.53,5.24,7.57.64,1.2,1.27,2.48,1.84,3.68.28.61.59,1.2.92,1.77,3.89,7.43,9.34,13.73,14.65,20.17,1.91,2.34,3.75,4.74,5.59,7.08.75.99,1.84,1.89,3.25,2.69v1.42l2.12.71v.71c-5.73-.28-10.83-1.7-16.27-3.54-.78-.28-1.56-.5-2.41-.78-.64-.21-1.2-.42-1.84-.64,6.37,5.52,12.81,10.4,20.45,14.08,1.7.92,3.18,1.98,4.81,3.04.64.42,1.27.85,1.91,1.34s1.27.92,1.91,1.34c1.77,1.27,3.54,2.48,5.31,3.75,1.2.85,2.34,1.7,3.54,2.48,3.61,2.55,7.22,4.88,11.11,7.01.42.28.85.57,1.27.92v1.42c-2.69.35-5.31.71-8,1.06-.78.07-1.49.21-2.26.28-7.5.99-14.29,1.06-21.65-.57-.57-.14-1.2-.28-1.77-.35-2.34-.5-4.67-.99-6.93-1.56-.57-.14-1.13-.28-1.7-.42-.5-.14-.99-.21-1.49-.35-2.19-.42-4.17-.35-6.37-.28,4.95,3.61,10.05,6.86,15.28,10.12,4.81,3.04,9.55,6.09,14.29,9.13,2.12,1.42,4.32,2.76,6.44,4.17.57.35,1.13.71,1.7,1.06,1.06.71,2.19,1.42,3.25,2.05,1.2.78,2.48,1.63,3.68,2.41v.71c-.42.07-.85.14-1.34.28-39.98,8.14-80.1,19.95-115.2,41.32-2.41,1.49-4.67,2.76-7.36,3.68l-.71-5.66c-.35.5-.78.92-1.2,1.42-5.57,6.84-8.89,10.9-9.98,12.17-1.13,1.34-2.19,2.69-3.33,4.1-.57.71-1.06,1.34-1.7,2.05-.5.64-.99,1.27-1.49,1.84-3.18,3.61-6.16,5.09-10.68,6.44-.5.14-.99.28-1.49.42-11.32,3.4-25.05,3.54-35.8-1.77-3.61-2.19-6.09-5.17-8.63-8.42-.47-.57-.94-1.13-1.42-1.7-.92-1.13-1.84-2.34-2.83-3.54-3.68-4.67-7.57-9.27-11.39-13.87l-.71,6.37c-.57-.35-1.2-.64-1.77-.99-1.77-.99-3.47-1.98-5.24-2.97-1.84-1.06-3.61-2.05-5.45-3.11-31.13-18.26-67.5-30.5-103.03-36.3-.78-.14-1.56-.28-2.41-.42-.71-.07-1.42-.21-2.12-.35-1.18-.28-2.48-.9-3.89-1.84,4.1-2.97,8.35-5.8,12.67-8.42,3.25-2.05,6.51-4.1,9.62-6.44,4.03-2.97,8.28-5.59,12.52-8.28,3.04-1.91,6.09-3.89,9.06-5.87-6.86.42-13.37,1.56-20.1,3.04-6.23,1.27-12.24,1.98-18.47.57-3.89-.78-7.71-1.13-11.68-1.49v-1.42c.35-.14.71-.35,1.06-.5,3.89-2.05,7.36-4.53,10.83-7.22,4.03-3.18,8.21-6.16,12.38-9.06.85-.57,1.7-1.2,2.48-1.77.42-.28.85-.64,1.34-.92.38-.28.78-.57,1.2-.85.75-.52,1.93-1.11,3.54-1.77,6.3-2.69,11.46-7.29,16.7-11.75-.78.28-1.56.57-2.41.85-3.47,1.2-7.08,1.98-10.68,2.83-.57.14-1.13.28-1.7.42-2.78.61-4.69.66-5.73.14.5-.42.99-.85,1.56-1.34,4.25-3.75,7.85-7.57,11.18-12.1.85-1.06,1.7-2.19,2.55-3.25,4.53-5.73,8.56-11.68,11.68-18.26l.78-1.63c.5-1.06.99-2.12,1.49-3.18,2.19-4.46,5.24-5.87,9.69-7.64.66-.28,1.34-.57,2.05-.85,2.12-.85,4.17-1.7,6.3-2.55.71-.28,1.44-.57,2.19-.85.71-.28,1.34-.57,2.12-.85.64-.21,1.2-.5,1.84-.71,1.91-.57,3.33-.71,5.31-.57,1.63.99,3.11,1.98,4.6,3.11.85.64,1.77,1.27,2.62,1.91.42.35.85.64,1.34.99,2.12,1.56,4.39,3.04,6.58,4.6,1.34.92,2.69,1.84,3.96,2.76v.71c-.47,0-.92,0-1.34,0-11.39.14-20.87,1.06-31.21,6.37.35,1.49.64,2.97.99,4.39.28,1.34.57,2.69.85,4.03,3.25,14.86,6.58,29.01,15.14,41.82l-7.78,2.12c1.32.24,2.64.47,3.96.71,1.7.28,3.47.64,5.17.99.85.14,1.7.28,2.62.5,2.48.42,4.95.92,7.43,1.34.64.14,1.34.28,2.05.35,12.74,2.41,21.94,8.49,31.7,16.77,1.04.94,2.24,1.39,3.61,1.34,3.54-1.2,7.5-3.11,10.12-5.73h-4.95c.5-2.83,1.27-5.45,2.12-8.21,1.49-4.74,2.26-8.63,2.26-13.59v-1.77c0-5.66-.71-11.18-1.56-16.77.57-.14,1.06-.28,1.63-.42.71-.21,1.42-.35,2.12-.57s1.42-.35,2.12-.57c1.27-.33,2.36-.99,3.25-1.98h-1.42c-8.92-.35-14.29-5.38-20.45-11.32-.57-.5-1.06-1.06-1.63-1.56-2.26-2.19-4.32-4.39-6.16-6.93l.71-1.42.85.85c8.63,9.06,19.18,15.07,31.7,16.13,0-6.46-1.65-12.36-4.95-17.69-1.34-1.27-2.69-2.41-4.25-3.54.38.52.73,1.06,1.06,1.63l1.42,2.12c.42.71.92,1.42,1.42,2.12.71,1.27,1.06,2.62,1.06,4.03-9.27-1.06-17.27-12.1-22.71-18.89-3.33-4.32-6.44-8.84-9.48-13.44-.35-.57-.78-1.13-1.13-1.7s-.71-1.06-1.06-1.63c-.28-.5-.64-.92-.92-1.42-.47-.8-.71-1.67-.71-2.62,3.11-.57,6.23-1.13,9.34-1.7.85-.14,1.7-.28,2.62-.5,13.02-2.26,25.9-3.04,39.06-2.97"/>
    <path class="cls-18" d="M310.03,378.11c2.9,1.06,5.73,2.19,8.56,3.47.78.28,1.49.64,2.26.92,1.42.64,2.9,1.2,4.32,1.84s2.83,1.13,4.25,1.7c2.83,1.91,3.82,4.53,5.24,7.57.64,1.2,1.2,2.48,1.84,3.68.28.61.59,1.2.92,1.77,3.89,7.43,9.34,13.73,14.65,20.17,1.91,2.34,3.75,4.74,5.59,7.08.8.99,1.89,1.89,3.25,2.69v1.42l2.12.71v.71c-5.73-.28-10.83-1.7-16.27-3.54-.78-.28-1.56-.57-2.41-.78-.64-.21-1.2-.42-1.84-.64,6.37,5.52,12.81,10.4,20.45,14.08,1.7.92,3.25,1.98,4.81,3.04.64.42,1.27.85,1.91,1.34.64.42,1.27.92,1.91,1.34,1.77,1.27,3.54,2.48,5.31,3.75,1.2.85,2.34,1.7,3.54,2.48,3.61,2.55,7.22,4.81,11.11,7.01.42.28.85.57,1.27.92v1.42c-2.69.35-5.31.71-8,1.06-.78.07-1.49.21-2.26.28-7.5.99-14.29,1.06-21.65-.57-.57-.14-1.2-.21-1.77-.35-2.34-.5-4.6-.99-6.93-1.56-2.76-.64-5.31-1.2-8.14-1.06-1.84.09-3.28-.12-4.32-.64-6.37-.78-12.81-.85-19.18-.85h-2.55c-7.64,0-14.44,1.06-21.58,3.61-.61.19-1.2.4-1.77.64-10.12,3.68-20.45,8.14-28.94,14.86-1.08.57-2.22.68-3.4.35-.57-.28-1.2-.64-1.77-.99-.61-.28-1.25-.59-1.91-.92s-1.27-.64-1.84-.92c-.57-.28-1.2-.61-1.91-.99-.5-.21-.92-.5-1.42-.71,16.2-16.7,34.88-20.87,57.32-23.35v-1.42h-6.44c-1.32-.05-2.45-.54-3.4-1.49.28-.42.57-.85.85-1.27,8.49-13.66,12.03-28.3,15-43.87.35-1.7.71-3.4,1.13-5.02-.42-.14-.78-.28-1.13-.35-.57-.14-1.06-.35-1.63-.57s-1.13-.35-1.77-.57c-1.2-.35-2.34-.78-3.54-1.2-.57-.21-1.06-.35-1.63-.57l-1.49-.5c-3.33-.99-6.51-1.27-9.98-1.27h-12.81c1.84-1.91,3.68-3.54,5.87-5.02.57-.42,1.13-.78,1.77-1.2l1.84-1.2c.57-.42,1.2-.78,1.77-1.2,1.13-.78,2.34-1.56,3.47-2.34,1.27-.85,2.55-1.84,3.75-2.83,2.83-1.49,4.81-1.2,7.71-.35"/>
    <path class="cls-18" d="M129.62,377.49c1.63.99,3.11,1.98,4.6,3.11.85.64,1.77,1.27,2.62,1.91.42.33.87.66,1.34.99,2.12,1.56,4.39,3.04,6.58,4.6,1.34.92,2.69,1.84,3.96,2.76v.71h-1.42c-11.39.14-20.87.99-31.13,6.37l.99,4.39c.28,1.34.57,2.69.85,4.03,3.25,14.86,6.58,29.01,15.14,41.82l-7.78,2.12c1.32.24,2.64.47,3.96.71,1.7.28,3.47.64,5.17.99.85.14,1.7.28,2.55.5,2.48.42,4.95.92,7.43,1.34.71.14,1.34.21,2.05.35,11.82,2.26,20.66,7.57,29.79,15.21.5.35.92.78,1.42,1.13.92.78,1.91,1.56,2.83,2.41-1.7,1.13-3.47,2.26-5.24,3.33-.57.35-1.06.64-1.63.99-2.12.85-3.04.64-5.17,0-1.2-.64-2.41-1.34-3.54-2.05-3.89-2.34-7.85-4.39-11.89-6.37-.57-.28-1.06-.57-1.63-.85-2.05-.99-4.17-1.91-6.3-2.76-.57-.21-1.06-.5-1.63-.71-11.18-4.67-20.87-5.73-32.9-5.38h-4.74c-2.83,0-5.73.07-8.56.14h-1.7c-.94,0-1.89.28-2.83.85-1.34.14-2.76.21-4.1.28-5.73.42-11.18,1.56-16.7,2.76-6.16,1.27-12.24,1.98-18.47.57-3.89-.78-7.71-1.2-11.68-1.49v-1.42c.35-.14.71-.35,1.06-.5,3.96-2.05,7.36-4.53,10.83-7.22,4.03-3.18,8.21-6.16,12.38-9.06.85-.57,1.63-1.2,2.48-1.77.42-.28.85-.64,1.27-.92.38-.28.78-.57,1.2-.85.42-.28,1.6-.87,3.54-1.77,6.3-2.69,11.46-7.29,16.7-11.75-.78.28-1.56.57-2.41.85-3.47,1.2-7.08,1.98-10.68,2.83-.57.14-1.13.28-1.7.42-2.78.61-4.69.66-5.73.14.5-.42.99-.85,1.56-1.34,4.25-3.75,7.85-7.57,11.18-12.1.85-1.06,1.7-2.19,2.55-3.25,4.53-5.73,8.56-11.68,11.68-18.26l.78-1.63c.5-1.06.99-2.12,1.49-3.18,2.19-4.46,5.17-5.87,9.69-7.64l2.05-.85c2.12-.85,4.17-1.7,6.3-2.55l2.19-.85c.71-.28,1.42-.57,2.12-.85.64-.21,1.27-.5,1.91-.71,1.91-.57,3.33-.71,5.31-.57"/>
    <path class="cls-5" d="M310.03,378.11c2.9,1.06,5.73,2.19,8.56,3.47.78.28,1.49.64,2.26.92,1.42.64,2.9,1.2,4.32,1.84s2.83,1.13,4.25,1.7c2.83,1.91,3.82,4.53,5.24,7.57,2.76,5.52,5.73,10.61,9.27,15.64-2.12.71-2.97.71-5.17.42-4.58-.61-9.03-.42-13.37.57-1.77,1.42-3.25,2.9-4.74,4.67-1.06.99-2.12,2.05-3.11,3.04-.85.85-1.7,1.77-2.55,2.62l-2.12,2.12c.35-5.73,1.56-11.18,2.9-16.7.21-.85.42-1.7.64-2.55.5-2.05.99-4.1,1.49-6.16-.42-.14-.85-.28-1.27-.42-3.33-1.06-6.58-2.19-9.91-3.4-3.33-.99-6.51-1.27-9.98-1.27h-12.81c1.84-1.91,3.68-3.54,5.87-5.02.57-.42,1.13-.78,1.77-1.2l1.84-1.2c.57-.42,1.2-.78,1.77-1.2,1.13-.78,2.34-1.56,3.47-2.34,1.27-.85,2.55-1.84,3.75-2.83,2.83-1.49,4.81-1.2,7.71-.35"/>
    <path class="cls-5" d="M129.59,377.4c1.63.99,3.11,1.98,4.6,3.11.85.64,1.77,1.27,2.62,1.91.42.33.87.66,1.34.99,2.12,1.56,4.39,3.04,6.58,4.6,1.34.92,2.69,1.84,3.96,2.76v.71h-1.42c-11.39.14-20.87.99-31.13,6.37.78,3.47,1.56,6.86,2.34,10.33.14.71.28,1.34.5,2.05.35,1.42.64,2.76.99,4.17.14.64.28,1.34.5,1.98.14.57.28,1.2.42,1.84.19,1.04.28,2.26.28,3.68-2.83-1.13-4.32-2.9-6.3-5.17-1.2-1.34-2.41-2.69-3.61-4.03-.57-.71-1.2-1.34-1.77-2.05-3.18-2.62-7.36-1.7-11.18-1.34-.78,0-1.56.07-2.41.14-1.98.14-3.89.28-5.8.42.35-.5.64-.99.99-1.49,2.9-4.39,5.38-8.92,7.64-13.66l.71-1.42c.21-.42.35-.78.57-1.2,2.26-4.1,3.82-6.16,8.28-7.93.42-.14.92-.35,1.34-.57,1.42-.57,2.83-1.13,4.25-1.7.99-.35,1.91-.78,2.9-1.13,6.6-2.64,10.94-3.84,13.02-3.61"/>
    <path class="cls-4" d="M88.55,437.55c-3.04,3.25-6.51,5.31-10.33,7.57-.71.42-1.49.85-2.19,1.34-6.01,3.61-12.1,6.65-18.47,9.48-1.56.71-3.11,1.42-4.67,2.19-.5.21-.99.5-1.49.71-1.27.64-2.62,1.27-3.89,1.91-2.12.78-2.9.99-4.95.07.5-.28.99-.64,1.49-.92,4.32-2.83,8.49-5.73,12.6-8.92.47-.38.97-.73,1.49-1.06,2.26-1.7,4.6-3.47,6.79-5.31,7.22-5.8,14.43-7.36,23.7-7.15"/>
    <path class="cls-4" d="M346.82,438.25c8.56.21,13.87.85,20.94,5.8.61.42,1.25.87,1.91,1.34l5.52,3.89,1.77,1.27,3.54,2.48c3.82,2.69,7.71,5.31,11.6,7.93-2.76.78-3.89.5-6.51-.71-.78-.35-1.49-.64-2.26-.99-.85-.35-1.63-.71-2.48-1.13-.85-.35-1.7-.71-2.62-1.06-18.44-7.59-28.89-13.85-31.35-18.75"/>
    <path class="cls-5" d="M124.64,433.3c1.91,2.83,3.4,5.87,5.02,8.92,1.06,2.05,2.19,4.03,3.47,5.94-8.56,2.76-14.01,1.91-21.94-2.12-1.49-.85-2.83-1.77-4.25-2.83v-1.42c2.55-.71,5.09-1.42,7.64-2.12.71-.21,1.49-.42,2.19-.64s1.42-.35,2.12-.57c.64-.14,1.27-.35,1.98-.57,1.13-.28,2.41-.42,3.82-.42v-4.25l-.07.07Z"/>
    <path class="cls-5" d="M307.2,436.13c.42.14.85.35,1.27.5,6.09,2.26,12.31,4.1,18.54,5.87-1.63,1.77-3.04,2.69-5.31,3.54-.64.28-1.2.5-1.84.78-.64.28-1.27.5-1.91.78s-1.27.5-1.91.78c-1.56.64-3.11,1.27-4.67,1.91l-.71-1.42h-6.44c-1.32-.05-2.45-.54-3.4-1.49.35-.57.71-1.13,1.06-1.77.42-.78.92-1.56,1.34-2.34.42-.75.87-1.51,1.34-2.26.92-1.63,1.84-3.25,2.62-4.95"/>
    <path class="cls-4" d="M94.28,409.45c1.32.14,2.64-.32,3.63-.14-6.09,7.5-14.95,17.19-24.22,20.44.57-.71,1.13-1.34,1.77-2.05,1.77-2.05,3.47-4.17,5.17-6.3.5-.57.99-1.2,1.49-1.77,1.06-1.34,2.05-2.69,2.97-4.1,2.92-4.06,5.97-6.09,9.13-6.09"/>
    <path class="cls-16" d="M310.74,451.7c-2.83,1.84-4.81,2.19-8.21,2.19h-10.26v-.71c1.98-.35,4.03-.71,6.01-1.13.57-.14,1.13-.21,1.7-.35,3.82-.64,6.86-.64,10.68,0"/>
    <path class="cls-18" d="M312.86,452.41l-2.83.71v1.42l-3.54.71-.71,2.12,4.95.71v.71c-.42,0-.78.07-1.2.14-15.14,2.19-31.91,9.41-43.87,18.82-1.08.57-2.22.68-3.4.35-.57-.35-1.2-.64-1.77-.99-.64-.28-1.27-.57-1.91-.92l-1.84-.92c-.61-.33-1.25-.66-1.91-.99-.5-.21-.92-.5-1.42-.71,13.23-13.66,27.03-19.81,45.92-20.24,3.16-.05,6.25-.4,9.27-1.06,1.37-.42,2.76-.42,4.17,0"/>
    <path class="cls-5" d="M267.57,397.21c0,2.41-.28,2.69-1.84,4.46-.35.42-.78.92-1.2,1.34-.42.5-.85.92-1.27,1.42s-.85.99-1.27,1.49c-.85.92-1.7,1.91-2.55,2.83-.92.99-1.77,1.98-2.62,2.97-4.6,4.95-11.25,10.33-18.11,11.04h-4.39c2.62,2.55,5.73,2.9,9.2,3.54.02,1.42-.05,2.68-.04,3.74s-.16,2.17-.31,2.92c-.35,1.91-.5,3.75-.57,5.73,0,.71,0,1.42-.07,2.19v2.26c-.14.78-.14,1.56-.14,2.34-.07,1.84-.14,3.75-.21,5.59-1.49-2.19-2.19-4.1-3.04-6.58-.14-.42-.28-.85-.42-1.34-.35-.92-.64-1.84-.92-2.76-.5-1.42-.92-2.76-1.42-4.17-3.16-9.25-4.74-15.14-4.74-17.69.64-.14,1.27-.21,1.98-.35,5.09-.99,9.76-2.12,14.29-4.6l1.7-.92c7.01-3.96,12.52-9.62,18.11-15.35"/>
    <path class="cls-5" d="M169.22,401.46c.64.57,1.27,1.13,1.98,1.7,9.69,8.21,18.4,13.94,31.28,15.28v-9.91h.71c.07,1.98.14,4.03.14,6.01v1.7c.14,3.54-.35,5.8-2.12,8.92-1.2,2.34-1.98,4.81-2.83,7.29-.14.5-.35.99-.5,1.49-.5,1.56-1.06,3.11-1.56,4.67l-1.06,3.18c-.85,2.62-1.77,5.17-2.62,7.78h-.71c0-.5-.07-.99-.14-1.56-.14-2.34-.35-4.6-.57-6.93,0-.78-.14-1.56-.21-2.41-.35-4.17-.71-8.28-1.27-12.45.57-.14,1.06-.28,1.63-.42l2.12-.57c.71-.14,1.42-.35,2.12-.57,1.27-.33,2.36-1.01,3.25-2.05h-1.42c-8.92-.35-14.29-5.31-20.52-11.32-.52-.52-1.06-1.04-1.63-1.56-2.92-2.88-4.98-5.19-6.16-6.93v-1.42l.07.07Z"/>
    <path class="cls-3" d="M341.87,426.23c2.55.42,4.74,1.13,7.08,2.12l-2.12.71-.71,1.42c-1.42-1.13-2.83-2.34-4.25-3.54v-.71Z"/>
    <path class="cls-18" d="M314.27,450.28l-.71,2.83c-1.77-.57-3.33-1.27-4.95-2.12,2.19-1.34,3.25-1.56,5.66-.71"/>
    <g id="eyelids_left_side">
      <path class="cls-3" d="M189.74,428.35h.71c2.21,11.03-.26,30.83-3.54,38.21l5.66-.71c-2.9,3.4-6.37,5.66-10.61,7.08-1.08-.19-1.72-1.05-2.53-1.34,2.48-1.42,4.72-1.49,7.48-2.2-.28-.5-.57-.99-.78-1.49-.85-2.83,0-4.32,1.06-7.08,1.84-4.81,2.69-8.28,2.69-13.44v-19.03"/>
      <path class="cls-6" d="M186.91,461.6c.64,2.12.71,2.76,0,4.95l5.66-.71c-2.9,3.4-6.37,5.66-10.61,7.08-1.08-.19-1.72-1.05-2.53-1.34,2.48-1.42,4.72-1.49,7.48-2.2l-.78-1.49c-.78-2.55-.21-3.82.78-6.3"/>
      <path class="cls-16" d="M188.32,461.6h.71v3.54l2.12.71-4.25.71c.42-2.26.9-3.92,1.42-4.95"/>
    </g>
    <path class="cls-6" d="M342.19,460.12c3.4-.07,6.44.21,9.69.78.57.07,1.06.21,1.63.28,1.91.35,3.82.71,5.73,1.06v.71c-2.9.07-5.66.07-8.49-.35-.71-.14-1.42-.21-2.12-.35l2.12,2.12-.71,1.42c-3.04-1.63-5.45-3.04-7.78-5.66"/>
    <path class="cls-6" d="M92.8,459.48c-2.34,2.62-4.74,4.03-7.78,5.66l-.71-1.42,2.12-2.12c-.71.14-1.42.21-2.12.35-2.83.42-5.59.42-8.49.35v-.71c1.91-.35,3.82-.71,5.73-1.06.57-.07,1.06-.21,1.63-.28,3.25-.57,6.3-.85,9.69-.78"/>
    <path class="cls-6" d="M133.13,447.45c0,1.42-.24,2.59-.71,3.54l2.83.71c-2.97.85-5.02.5-8-.28-.78-.21-1.49-.42-2.26-.64-.57-.14-1.13-.28-1.7-.5v-.71c3.25-.71,6.56-1.42,9.91-2.12"/>
    <path class="cls-3" d="M92.09,426.93c-1.89,1.65-3.98,2.88-5.87,4.53l-.5-1h-6.37c2.26-1.13,4.4-1.9,6.8-2.82.64-.28,1.49-.38,2.2-.66,1.23-.5,2.39-.53,3.8-.06"/>
    <path class="cls-15" d="M252,380.23h.71c-.35,4.25-1.7,7.5-3.54,11.32-.99-1.75-1.32-3.23-.99-4.46,1.2-2.34,2.48-4.6,3.82-6.86"/>
    <path class="cls-15" d="M346.82,438.25l12.03.71v.71c-2.55.24-5.14.47-7.78.71l2.83,2.83c-3.47-1.06-4.25-2.12-7.08-4.95"/>
    <path class="cls-15" d="M88.55,437.55c-1.77,1.91-3.25,3.25-5.66,4.25l-.71-2.12c-.94-.57-1.89-1.04-2.83-1.42,3.11-.5,6.09-.78,9.2-.71"/>
    <path class="cls-14" d="M189.03,397.92c.71.47,1.42.94,2.12,1.42v1.42l2.12.71-.71,2.12,1.42.71-.71,1.42-4.95-3.54,1.42-2.12-.71-2.12Z"/>
    <path class="cls-3" d="M244.22,421.98c-2.19,1.27-4.02,2.46-6.71,2.46l-.71,2.12-4.25-2.83c3.03-1.69,4.66-1.97,6.78-2.18.64-.07,1.27-.14,1.91-.21,1.08,0,2.1.21,3.04.64"/>
    <path class="cls-1" d="M286.68,389.43l1.42.71c1.91.14,3.82.28,5.73.42.52,0,1.06.02,1.63.07,1.34.07,2.62.14,3.96.21v.71c-5.14.24-10.33.47-15.57.71l2.83-2.83h0Z"/>
    <path class="cls-16" d="M155.77,456.65c1.42.57,2.83,1.13,4.17,1.7.78.28.51,1.69,1.29,1.97,1.27.61,3.2.34,3.67,1.29l-4.95-.71v-1.42l-3.54-.71-.71-2.12h.07Z"/>
    <path class="cls-15" d="M51.75,458.07c-1.98,1.63-3.89,2.76-6.37,3.54-1.08-.19-2.03-.42-2.83-.71,3.18-2.48,5.17-3.18,9.2-2.83"/>
    <path class="cls-3" d="M300.12,448.16l10.61.71v1.42l-4.25.71v-1.42h-2.41c-1.7,0-3.02-.47-3.96-1.42"/>
    <path class="cls-16" d="M123.93,450.28l7.78,1.42v1.42c-3.49.14-6.09-.33-7.78-1.42v-1.42Z"/>
    <path class="cls-26" d="M82.18,419.15l3.54,2.83c-1.34,1.06-2.69,2.05-4.03,3.11-.38.28-.75.57-1.13.85-2.19,1.7-4.25,2.9-6.86,3.82.64-.71,1.2-1.42,1.84-2.12,2.34-2.76,4.53-5.59,6.65-8.49"/>
    <path class="cls-14" d="M80.21,424.65l.71,2.83c2.08-.24,4.2-.47,6.37-.71-2.76,1.84-5.38,2.26-8.56,2.97-.57.14-1.16.28-1.77.42-.57.14-1.13.28-1.7.35-.52.09-1.04.21-1.56.35-.52.14-1.42-.05-2.69-.57.94-.94,2.22-1.75,3.82-2.41,2.12-.92,3.61-1.77,5.38-3.25"/>
    <path class="cls-25" d="M312.86,452.41c-6.3,2.48-12.17,3.89-18.89,4.67-.71.07-1.42.21-2.19.28-5.02.64-9.98.78-15,.71.47-.94,1.3-1.65,2.48-2.12,6.79-1.98,13.3-2.48,20.38-2.55,3.07,0,6.09-.33,9.06-.99,1.37-.42,2.76-.42,4.17,0"/>
    <path class="cls-15" d="M181.24,380.23c1.7,1.56,2.83,3.18,3.96,5.17,2.19,3.68,4.6,7.15,7.22,10.61,1.51,2.08,2.26,3.89,2.26,5.45-1.42,0-2.67-.45-3.75-1.34-4.74-5.09-9.69-12.67-9.69-19.88"/>
    <path class="cls-4" d="M377.25,450.99c5.09,3.18,9.98,6.44,14.86,9.91-2.69.99-4.1.35-6.65-.78-.71-.35-1.49-.64-2.26-.99-.78-.35-1.56-.71-2.41-1.13-.42-.21-.85-.42-1.27-.57-2.62-1.2-5.31-2.41-7.93-3.68,1.91-.5,3.75-.92,5.66-1.42v-1.42.07Z"/>
    <path class="cls-6" d="M92.09,426.93c-4.25,3.96-9.24,6.53-14.05,9.72l-1.1-1.62c2.23-.96,2.06-.94,3.1-1.32.43-.16,1.08-.47,1.45-.75l1.4-1.07c-4.43.24-8.92.47-13.44.71l.71-2.12,2.12.71c1.08-.14,2.22-.35,3.4-.64.64-.14,1.27-.28,1.98-.5.66-.19,1.34-.35,2.05-.5s1.34-.35,2.05-.5c2.41-.52,4.72-1.27,6.93-2.26.9-.42,2.05-.4,3.47.07"/>
    <path class="cls-14" d="M169.22,401.46c.64.57,1.27,1.13,1.98,1.7,5.8,4.95,11.6,9.34,18.54,12.45-8.12,2.71-1.97.94-7.08-1.42v1.42l1.34.64c.99.52,1.72,1.25,2.19,2.19-6.44-2.97-13.09-9.69-16.98-15.57v-1.42Z"/>
    <path class="cls-23" d="M286.62,456.22c.52,0,2.09-1.05,2.61-1.05h3.82c-.21.71-.5,1.42-.71,2.12-5.17.64-10.33.78-15.57.71.47-.94,1.3-1.67,2.48-2.19,2.9-.71,5.45-.78,8.35-.71"/>
    <path class="cls-5" d="M213.16,362.33h6.86c14.08,0,28.02.85,41.89,3.47.92.14,1.84.28,2.76.5,2.19.42,4.32.78,6.44,1.2-.92,2.34-1.91,4.46-3.25,6.58-.28.5-.64.99-.92,1.49-.21.35-.5.71-.71,1.13l-.71-2.83c-4.25-.78-8.49-1.49-12.74-2.12-.64-.07-1.27-.21-1.91-.28-28.09-4.32-57.39-2.69-85.12,3.11-2.36-3.68-3.54-6.04-3.54-7.08,3.11-.57,6.23-1.13,9.34-1.7.85-.14,1.7-.28,2.62-.5,13.02-2.26,25.9-3.04,39.06-2.97"/>
    <path class="cls-14" d="M266.52,398.26c0,2.41-.28,2.69-1.84,4.46-.35.42-.78.92-1.2,1.34-.42.5-.85.92-1.27,1.42s-.85.99-1.27,1.49c-.85.92-1.7,1.91-2.55,2.83-.92.99-1.77,1.98-2.62,2.97-4.53,4.95-11.18,10.26-17.97,11.18-2.76,0-4.6-.42-6.65-2.26v-1.42c.42-.14.85-.28,1.27-.35,14.44-4.46,23.63-10.76,34.11-21.58"/>
    <path class="cls-18" d="M252,380.23h.71c-.28,2.41-.57,4.53-1.49,6.79-.85,2.12-.85,3.75-.64,5.94l1.42,1.42c-1.2,1.2-2.41,2.41-3.61,3.61-.99,1.06-1.98,2.05-2.97,3.11-4.29,3.96-7.5,5.94-9.62,5.94.21-3.68,1.49-5.31,3.89-7.93,1.27-1.49,2.19-3.04,3.04-4.81,1.13-1.84,2.41-3.61,3.68-5.31,2.12-2.9,3.96-5.73,5.66-8.84"/>
    <path class="cls-14" d="M169.22,401.46c.64.57,1.27,1.13,1.98,1.7,6.51,5.52,13.09,10.05,20.66,13.87l-1.05,2.46,10.61.71c.13.79-.58,1-2.49,1.78-5.09.85-8.84,0-13.09-2.9-3.11-2.41-6.01-4.95-8.84-7.71-.52-.52-1.06-1.04-1.63-1.56-2.92-2.88-4.98-5.19-6.16-6.93v-1.42Z"/>
    <path class="cls-4" d="M336.92,409.95c2.83-.71,5.02-.78,7.78,0,2.69,2.55,4.74,5.45,6.79,8.56,1.56,2.19,3.25,4.17,5.02,6.23.57.71,1.16,1.42,1.77,2.12.42.5.85.99,1.27,1.49l-.71,1.42c-5.17-3.54-9.76-7.36-14.29-11.6-1.34-1.27-2.83-2.48-4.32-3.68-1.77-1.56-2.62-2.41-3.4-4.53"/>
    <path class="cls-23" d="M120.76,452.75c.64,0,1.27.07,1.98.14.85.05,1.72.12,2.62.21.85,0,1.7.14,2.62.21,1.79.14,3.61.17,5.45.07,3.47,0,6.72.71,10.12,1.42.64.14,2.25-.84,2.89-.7,3.18.64,6.3,1.42,9.34,2.55-.94.94-3.2,2.49-4.66,2.54-.99,0-1.91-.07-2.9-.14h-1.56c-4.67-.5-9.34-1.13-14.01-1.98-.71-.14-1.42-.21-2.12-.35-3.61-.64-6.58-1.42-9.76-3.25v-.71h0Z"/>
    <path class="cls-5" d="M262.05,478.94c4.25.35,7.64,2.26,11.32,4.25-1.06,4.1-3.18,7.85-5.66,11.32h-1.42c0-.64-.14-1.27-.14-1.91-.64-4.6-1.98-9.55-4.1-13.66"/>
    <path class="cls-15" d="M191.86,396.51l3.54,3.54-.71,1.42c-1.42,0-2.76-.59-4.03-1.77-.57-.57-1.06-1.2-1.63-1.77l1.42-.71,1.42.71v-1.42Z"/>
    <path class="cls-14" d="M176.29,409.24c2.26.21,3.25.42,4.81,2.19.28.42.57.92.85,1.34-.85.38-1.79.61-2.83.71-1.04-.85-1.98-1.79-2.83-2.83v-1.42Z"/>
    <path class="cls-3" d="M192.57,396.51c2.69,1.06,3.96,2.69,5.66,4.95-.47.71-.94,1.42-1.42,2.12l-2.12-3.11c-.42-.57-.78-1.13-1.2-1.77-.61-.99-.92-1.72-.92-2.19"/>
    <path class="cls-6" d="M195.88,400.99l1.88-.16c.75.94,1,2.04,1.66,2.99l-.71,1.42-.23,1.88-1.19.24-2.83-.71h2.12l-.71-5.66Z"/>
    <path class="cls-15" d="M181.24,380.23c2.19,1.77,2.9,3.61,3.54,6.37-.47.71-.94,1.42-1.42,2.12-.35-.99-.71-2.05-1.06-3.04-.21-.57-.42-1.13-.57-1.7-.33-1.08-.5-2.34-.5-3.75"/>
    <path class="cls-3" d="M165.68,397.21c2.69,1.91,3.96,3.25,4.95,6.37l.71,1.42c-2.34-.78-3.25-1.84-4.39-3.89-.85-1.65-1.27-2.95-1.27-3.89"/>
    <path class="cls-14" d="M249.17,413.49l2.83.71-.71,2.12h-5.66c.47-.09.92-.17,1.34-.21.5-.14.99-.35,1.49-.5l.71-2.12Z"/>
    <path class="cls-14" d="M243.51,417.73v3.54l-4.25-1.42c1.23-1.42,2.64-2.12,4.25-2.12"/>
    <path class="cls-14" d="M257.67,408.54c-.19.9-.42,1.84-.71,2.83l-1.42.71v-1.42l-2.83.71c1.7-1.89,3.35-2.83,4.95-2.83"/>
    <path class="cls-15" d="M243.51,392.97l.71,1.42-.71,1.42,1.42,1.42c-2.26,2.41-3.96,3.82-7.08,4.95.78-1.42,1.63-2.83,2.41-4.17.42-.78.92-1.56,1.34-2.34.75-1.27,1.37-2.15,1.84-2.62"/>
    <path class="cls-3" d="M240.68,396.86c-.42,2.76-1.77,4.32-3.54,6.37l-2.83-1.42c.78-.85,1.56-1.63,2.41-2.48l1.34-1.42c.8-.71,1.67-1.06,2.62-1.06"/>
    <path class="cls-16" d="M169.22,401.46c2.97,2.48,5.8,5.02,8.49,7.78l-2.12.71c-1.06-1.13-2.12-2.26-3.18-3.47-.57-.64-1.2-1.27-1.77-1.91-.94-1.13-1.42-2.17-1.42-3.11"/>
    <path class="cls-5" d="M231.48,418.44l2.12.71h-1.42c1.63,2.19,3.25,4.25,4.95,6.37l-2.83,2.12c-.5-.99-.92-1.98-1.42-2.97-.28-.57-.54-1.13-.78-1.7s-.45-2.08-.64-4.53"/>
    <path class="cls-8" d="M267.57,397.21c0,2.48-.42,2.83-1.98,4.67-.42.47-.85.94-1.27,1.42l-1.34,1.49-1.34,1.49c-1.06,1.2-2.19,2.48-3.25,3.68l-1.42-2.12,10.61-10.61h0Z"/>
    <path class="cls-6" d="M341.87,426.23c2.48.42,4.67,1.13,7.01,2.05,4.6,1.7,9.34,2.69,14.22,3.61v.71c-4.46.14-8.42-.42-12.74-1.42l2.12,3.54c-2.62-1.13-4.67-2.83-6.93-4.67-.71-.57-1.42-1.13-2.12-1.7-.57-.5-1.06-.92-1.63-1.42v-.71h.07Z"/>
    <path class="cls-3" d="M137.37,452.41c5.38-.64,10.12.42,15.21,1.98.61.19,1.25.38,1.91.57,3.3,1.04,5.61,2.31,6.93,3.82-1.2-.35-2.41-.64-3.61-.99-.71-.14-1.34-.35-2.05-.57-1.42-.42-2.76-.85-4.1-1.27-2.83-.85-5.66-1.34-8.56-1.84-.57-.07-1.13-.21-1.7-.28-1.34-.21-2.69-.5-4.1-.71v-.71h.07Z"/>
    <path class="cls-4" d="M252,380.23h.71c-.28,6.65-3.89,13.02-8.49,17.69-1.63,1.49-3.25,2.9-4.95,4.25l-1.42-.71c.42-.5.78-.99,1.27-1.49,1.34-1.77,2.41-3.61,3.54-5.59,1.13-1.84,2.41-3.61,3.75-5.38,2.12-2.9,3.96-5.73,5.66-8.84"/>
    <path class="cls-14" d="M267.57,397.21c0,2.41-.28,2.69-1.84,4.46l-1.2,1.34-1.27,1.42c-.42.5-.85.92-1.27,1.42-2.97,3.4-6.09,6.65-9.34,9.76l-3.54-2.83,1.34-.71c6.72-3.89,11.75-9.27,17.05-14.86"/>
    <path class="cls-22" d="M189.03,397.92c.71.47,1.42.94,2.12,1.42v1.42h2.83c1.84.64,2.62,1.13,3.68,2.76.38.99.57,2.19.57,3.61-4.1-.5-7.22-2.62-9.91-5.66l1.42-1.42-.71-2.12Z"/>
    <path class="cls-6" d="M239.27,396.51h1.42c-.57,2.76-1.7,4.39-3.4,6.51-.92,1.34-1.2,2.48-1.56,4.1.78-.5,1.56-.92,2.41-1.42,1.6-.94,2.92-1.42,3.96-1.42v1.42l-3.54.71v1.42h-3.54l-.71-3.54-2.12,2.12c1.13-4.03,4.17-7.01,7.08-9.91"/>
    <path class="cls-15" d="M388.43,458.63c1.27.71,2.48,1.49,3.68,2.26-1.56.71-2.55.78-4.1.28-1.2-.57-2.48-1.13-3.68-1.7,1.49-1.2,2.34-1.63,4.1-.85"/>
    <path class="cls-16" d="M305.07,450.99l5.66.71c-2.55,1.7-4.03,1.56-7.08,1.42l1.42-2.12Z"/>
    <path class="cls-15" d="M81.47,425.52l-6.37,4.25-1.42-.71c2.92-3.11,5.52-4.29,7.78-3.54"/>
    <g id="eyelids_left_side-2" data-name="eyelids_left_side">
      <path class="cls-3" d="M243.51,427.66c0,.96-.05,1.91-.05,2.89,0,1.9-.09,3.83-.09,5.75v3.54c0,1.77,0,3.47,0,5.24v1.63c0,5.17.85,8.63,2.69,13.44,1.06,2.76,1.91,4.25,1.06,7.08-.21.5-.5.99-.78,1.49,2.76.71,5,.79,7.48,2.2-.8.28-1.44,1.15-2.53,1.34-4.25-1.42-7.71-3.68-10.61-7.08l5.66.71c-3.27-7.38-5.74-27.18-3.54-38.21h.71"/>
      <path class="cls-6" d="M246.34,460.92c.99,2.48,1.56,3.75.78,6.3l-.78,1.49c2.76.71,5,.79,7.48,2.2-.8.28-1.44,1.15-2.53,1.34-4.25-1.42-7.71-3.68-10.61-7.08l5.66.71c-.71-2.19-.64-2.83,0-4.95"/>
      <path class="cls-16" d="M244.93,460.92c.52,1.04.99,2.69,1.42,4.95l-4.25-.71,2.12-.71v-3.54h.71"/>
    </g>
  </g>
  <g id="Face_Lower_Part">
    <path id="Main_Part" class="cls-20" d="M320.43,458h2.55c11.27,0,18.66,1.27,22.15,3.82.5.28.92.64,1.42.92.99.71,1.98,1.34,2.97,2.05,2.19,1.49,4.39,2.9,6.65,4.39,1.77,1.13,3.54,2.34,5.31,3.47,4.6,2.97,9.27,5.94,13.94,8.92,3.04,1.91,6.01,3.82,8.99,5.8l1.56,1.06c.35.28.78.57,1.13.85v.71c-.42.07-.85.21-1.34.28-39.98,8.14-80.1,19.95-115.2,41.39-2.41,1.49-4.67,2.69-7.36,3.68-.21-1.84-.5-3.75-.71-5.66-.35.5-.78.92-1.2,1.42-5.57,6.84-8.89,10.9-9.98,12.17-1.13,1.34-2.19,2.69-3.33,4.1-.57.71-1.13,1.34-1.7,2.05-.5.64-.99,1.27-1.49,1.84-3.18,3.61-6.16,5.17-10.68,6.44-.5.14-.99.28-1.49.42-11.32,3.4-25.05,3.47-35.8-1.77-3.61-2.19-6.09-5.17-8.63-8.42-.42-.57-.92-1.13-1.42-1.7-.92-1.2-1.84-2.34-2.83-3.54-3.75-4.67-7.5-9.27-11.39-13.87-.21,2.12-.5,4.17-.71,6.37-.57-.35-1.13-.64-1.77-.99-1.77-.99-3.47-1.98-5.24-2.97-1.84-1.06-3.61-2.05-5.45-3.11-31.13-18.26-67.5-30.5-103.03-36.3-.8-.14-1.6-.26-2.41-.35-.71-.14-1.42-.21-2.12-.35-1.18-.28-2.48-.9-3.89-1.84,4.1-2.97,8.35-5.8,12.67-8.42,3.25-2.05,6.51-4.1,9.62-6.44,3.47-2.62,7.15-4.88,10.83-7.15.42-.28.85-.57,1.34-.85.5-.28.99-.57,1.49-.85,1.08-.71,2.17-1.53,3.25-2.48,6.58-5.38,13.23-5.09,21.37-4.95h6.79c17.97,0,34.04,7.36,49.25,16.42,2.26,1.37,5.12,2.43,7.71,2.9,1.13-.47,1.79-1.2,2.83-1.91,1.79-1.18,3.33-1.79,4.6-1.84,2.19,1.2,2.9,3.33,3.96,5.52.21.42.42.85.64,1.34,2.05,4.25,3.33,7.93,3.96,12.67,1.42,4.1,5.24,6.16,8.92,8.21.42.21.85.5,1.34.71,3.82,2.31,7.85,3.96,12.1,4.95,1.18-.47,2.31-1.32,3.4-2.55,1.08-1.23,1.65-1.79,1.7-1.7h2.83c.57.57,1.06,1.13,1.63,1.77,1.18,1.32,2.57,1.98,4.17,1.98,6.79-.64,14.58-5.8,19.67-10.12,1.98-2.62,2.12-4.53,2.19-7.71.35-5.73,3.89-10.26,7.01-14.93,4.72,1.89,7.67,3.16,8.84,3.82,1.27.47,2.52.28,3.75-.57.78-.57,1.49-1.06,2.26-1.63,8.99-6.16,18.96-10.4,29.22-14.01.71-.21,1.34-.5,2.05-.71,7.01-2.41,13.52-2.55,20.87-2.48"/>
    <path class="cls-4" d="M320.56,458.18h2.55c11.27,0,18.66,1.27,22.15,3.82.5.28.92.64,1.42.92.99.64,1.98,1.34,2.97,2.05,2.26,1.56,4.67,3.11,7.01,4.6,2.41,1.56,4.74,3.11,7.15,4.67,1.49.92,2.9,1.91,4.39,2.83.75.52,1.53,1.01,2.34,1.49.8.47,1.46.9,1.98,1.27.52.38,1.23,1.2,2.12,2.48-.78,0-1.63.14-2.48.21-8.35.71-16.7,1.56-25.05,2.62-1.2.14-2.34.28-3.47.42-8.14.92-15.21,2.83-22.78,6.01-1.2.5-2.41.99-3.68,1.49-.99.42-2.05.85-3.11,1.27-.57.21-1.13.5-1.7.71-5.59,2.41-10.97,5.09-16.35,7.85-2.05,1.06-4.17,2.12-6.23,3.18-.5.28-.92.5-1.42.78-2.05,1.06-3.4,1.7-5.73,1.7-2.41-5.57-3.59-9.58-3.54-12.03.9-1.18,2.08-2.36,3.54-3.54l1.2-1.13c3.54-3.33,7.5-5.8,11.68-8.21,1.32-.75,2.31-1.53,2.97-2.34,1.42-1.27,2.62-1.7,4.46-2.26.57-.19,1.16-.38,1.77-.57.42-.14.85-.28,1.34-.42-9.72-1.04-18.89.19-27.53,3.68-1.49,1.34-2.9,2.69-4.32,4.1-1.13.61-2.17,1.13-3.11,1.56-3.4,1.98-4.53,5.73-6.16,9.13-4.25,8.99-12.24,13.09-21.37,16.42-20.31,6.86-40.76,5.38-60.08-3.68-4.1-2.05-7.64-4.39-10.19-8.21-.42-.64-.85-1.2-1.27-1.84-1.2-2.05-2.05-4.1-2.9-6.3-2.48-5.31-6.79-7.22-11.82-9.76-1.42-.85-2.26-1.91-3.4-3.11-3.82-3.4-9.69-2.41-14.51-2.19h-3.18c-2.62,0-5.24.14-7.78.21l8.49,2.83v1.42c.5.21.99.35,1.49.57,6.58,2.83,13.73,8,18.33,13.59.57,2.19.14,3.61-.71,5.66-.14.57-.35,1.2-.57,1.77-.5,1.56-.99,3.04-1.56,4.6-3.11-.42-5.66-1.63-8.42-3.11-.99-.5-1.98-.99-2.9-1.49l-1.56-.78c-16.23-8.35-33.26-14.29-51.09-17.83-2.34-.14-4.6-.5-6.86-.85-7.01-1.06-14.08-1.49-21.16-2.05.99-2.26,1.91-3.4,3.96-4.74.5-.35,1.06-.71,1.56-1.06.57-.35,1.13-.71,1.7-1.06s1.13-.78,1.77-1.13c1.7-1.13,3.47-2.19,5.17-3.33.92-.57,1.84-1.2,2.76-1.77,2.69-1.75,4.62-2.97,5.8-3.68.94-.61,1.93-1.39,2.97-2.34,6.58-5.38,13.23-5.09,21.44-4.95h6.79c17.97,0,34.04,7.36,49.25,16.42,2.26,1.37,4.69,2.29,7.29,2.76,1.13-.47,2.22-1.06,3.25-1.77,1.79-1.18,3.33-1.79,4.6-1.84,2.19,1.2,2.9,3.33,3.96,5.52.21.42.42.85.64,1.34,2.05,4.25,3.33,7.93,3.96,12.67,1.42,4.1,5.24,6.16,8.92,8.21.42.21.85.5,1.34.71,3.82,2.31,7.85,3.96,12.1,4.95,1.18-.47,2.31-1.32,3.4-2.55.57-.57,1.13-1.13,1.7-1.7h2.83c.57.57,1.06,1.13,1.63,1.77,1.18,1.32,2.57,1.98,4.17,1.98,6.79-.64,14.58-5.8,19.67-10.12,1.98-2.62,2.12-4.53,2.19-7.71.35-5.73,3.89-10.26,7.01-14.93,4.72,1.89,7.67,3.16,8.84,3.82,1.27.47,2.52.28,3.75-.57.78-.57,1.49-1.06,2.26-1.63,8.99-6.16,18.96-10.4,29.22-14.01.71-.21,1.34-.5,2.05-.71,7.01-2.41,13.52-2.55,20.87-2.48"/>
    <path class="cls-4" d="M320.43,458.08h2.55c11.27,0,18.66,1.27,22.15,3.82.47.33.94.64,1.42.92.99.64,1.98,1.34,2.97,2.05,2.26,1.56,4.67,3.11,7.01,4.6,2.41,1.56,4.74,3.11,7.15,4.67,1.49.92,2.9,1.91,4.39,2.83.75.52,1.53,1.01,2.34,1.49.64.42,1.27.85,1.98,1.27.94.71,1.65,1.53,2.12,2.48-.78,0-1.63.14-2.48.21-8.35.71-16.7,1.56-25.05,2.62-1.2.14-2.34.28-3.47.42-8.14.92-15.21,2.83-22.78,6.01-1.2.5-2.41.99-3.68,1.49-.99.42-2.05.85-3.11,1.27-.57.21-1.13.5-1.7.71-5.59,2.41-10.97,5.09-16.35,7.85-2.05,1.06-4.17,2.12-6.23,3.18-.5.28-.92.5-1.42.78-2.05,1.06-3.4,1.7-5.73,1.7-2.41-5.57-3.59-9.58-3.54-12.03.9-1.18,2.08-2.36,3.54-3.54l1.2-1.13c3.54-3.33,7.5-5.8,11.68-8.21,1.32-.75,2.31-1.53,2.97-2.34,1.42-1.27,2.62-1.7,4.46-2.26.57-.14,1.13-.35,1.77-.57.42-.14.85-.28,1.34-.42-9.76-1.04-18.99.24-27.67,3.82-1.42,1.27-2.83,2.62-4.17,3.96-1.98,1.2-2.62,1.42-4.95,1.42,0-1.2,0-2.48-.07-3.68v-2.05c.14-2.19.57-3.61,1.56-5.59.21-.57.5-1.13.71-1.77,2.26-2.83,5.38-4.03,8.7-5.52.71-.35,1.42-.64,2.19-.99,5.09-2.34,10.33-4.39,15.64-6.3l2.05-.71c7.01-2.34,13.44-2.48,20.8-2.48"/>
    <path class="cls-9" d="M382.2,485.66c.5.35,1.06.71,1.56,1.06,1.13.78,2.26,1.63,3.4,2.48v.71c-.42.07-.85.14-1.34.28-39.98,8.14-80.1,19.95-115.2,41.39-2.41,1.49-4.67,2.69-7.36,3.68-.57-3.25-.71-5.94,1.13-8.84,1.7-1.84,3.47-3.61,5.24-5.31.71-.71,1.34-1.42,2.05-2.12,6.72-7.01,13.87-12.17,22.57-16.42l2.34-1.13c6.3-3.04,12.67-5.94,19.03-8.7.42-.19.87-.38,1.34-.57,7.5-3.25,14.22-5.8,22.36-6.72.71-.07,1.42-.14,2.12-.28,1.49-.21,2.97-.35,4.46-.57,2.97-.35,6.01-.78,8.99-1.13,2.83-.35,5.66-.71,8.42-1.06,1.56-.21,3.11-.42,4.67-.64,5.87-.78,9.27.64,14.15,3.96"/>
    <path class="cls-21" d="M60.95,480.71l.71,1.42h1.34c11.6-.21,23.14,1.49,34.6,3.4,1.04.14,2.05.24,3.04.28,5.59.28,10.54,2.69,15.57,4.95.5.21.99.42,1.56.64,22.69,9.81,36.89,17.69,42.6,23.63,1.34,1.34,2.83,2.62,4.25,3.89,1.06.99,2.12,1.98,3.18,2.97l1.56,1.34c2.12,2.05,3.4,3.33,3.61,6.37-.14,1.98-.42,3.82-.85,5.73-.57-.35-1.13-.64-1.77-.99-1.77-.99-3.47-1.98-5.24-2.97-1.84-1.06-3.61-2.05-5.45-3.11-31.13-18.26-67.5-30.5-103.03-36.3-.8-.14-1.6-.28-2.41-.42-.71-.07-1.34-.21-2.12-.35-1.18-.28-2.48-.9-3.89-1.84,4.17-2.97,8.35-5.8,12.74-8.49"/>
    <path class="cls-19" d="M191.22,497.83c.78.42,1.49.85,2.26,1.27,5.47,3.59,11.27,6.23,17.41,7.93,1.18-.47,2.31-1.32,3.4-2.55l1.7-1.7h2.83c.57.57,1.06,1.2,1.63,1.77,1.18,1.32,2.57,1.98,4.17,1.98,6.72-.64,14.58-5.73,19.67-10.12,1.98-2.62,2.12-4.53,2.19-7.71.35-5.73,3.89-10.26,7.01-14.93"/>
    <path class="cls-13" d="M298,481.42c-1.77,1.98-3.82,3.33-6.09,4.81-4.58,2.83-8.68,6.18-12.31,10.05.28,4.1,1.34,8.21,2.83,12.03l1.42.71c-.42.35-.85.71-1.34.99-8.63,6.86-16.27,14.58-22.93,23.42-2.34,3.04-4.81,5.94-7.36,8.84-2.55,2.97-5.02,6.01-7.43,9.13-3.11,3.54-6.09,4.95-10.47,6.23-.5.14-.99.28-1.49.42-11.39,3.4-24.98,3.47-35.8-1.77-.78-.42-1.49-.85-2.26-1.27.24-.47.47-.94.71-1.42,4.25-.99,7.71-.57,11.96.28,10.19,2.05,22.71,1.63,31.91-3.82,1.7-1.91,2.83-3.96,3.96-6.23.35-.57.64-1.2.99-1.84.99-1.77,1.91-3.61,2.83-5.38.5-.92.99-1.84,1.49-2.76,1.13-2.12,2.26-4.25,3.4-6.37.85-1.7,1.77-3.33,2.69-5.02.64-1.2,1.34-2.48,1.98-3.68.35-.57.64-1.2.92-1.77.28-.57.57-1.06.85-1.63.28-.47.54-.97.78-1.49.24-.52.42-1.65.57-3.4,1.13-1.63,2.26-3.18,3.54-4.67l1.06-1.34c.71-.92,1.42-1.77,2.19-2.69.85-.99,1.63-1.98,2.41-2.97,6.72-8.07,17.97-17.62,29.01-17.34"/>
    <path id="_Path_" data-name="&amp;lt;Path&amp;gt;" class="cls-7" d="M126.4,477.25c3.4-.14,6.79-.21,10.19-.28,1.13,0,2.34,0,3.47-.14,7.22-.28,12.27.75,15.14,3.11.99.99,2.05,1.98,3.04,2.97.85.52,1.67.97,2.48,1.34,6.51,3.18,8.77,7.15,11.75,13.52,3.54,7.64,11.04,10.97,18.54,13.8,2.48.85,5.02,1.7,7.57,2.48.78.21,1.56.5,2.34.71,17.34,4.53,36.72,1.06,52.43-6.93,6.23-3.75,9.69-7.93,12.74-14.43,1.7-3.68,3.63-5.33,6.45-8.81,1.69-1.74,2.62-3.87,4.25-5.28,6.37-5.17,13.3-4.28,21.23-3.79,1.13,0,2.3-.07,3.5,0,2.76.07,5.34-.14,8.17,0v.71c-.57.14-4.3.83-4.87.97-18.47,5.17-28.68,12.87-40.21,28.65-1.06,1.42-2.12,2.76-3.25,4.1-6.72,8.77-12.31,18.19-17.55,27.81-.38.71-.78,1.44-1.2,2.19s-.78,1.39-1.06,1.91c-1.91,3.11-3.4,5.59-7.01,6.58-.5.14-.99.28-1.56.5-4.88,1.2-9.55,1.27-14.58,1.27h-2.26c-9.25,0-15.52-1.46-18.82-4.39-1.27-1.77-2.34-3.61-3.4-5.52-.64-1.06-1.2-2.19-1.84-3.25l-.92-1.63c-8-14.22-16.98-28.09-28.52-39.84-.5-.5-.99-1.06-1.49-1.56-9.34-9.13-22.43-12.6-34.6-16.13v-.71l-.14.07Z"/>
    <path class="cls-4" d="M174.88,511.14c3.18,2.9,5.45,6.16,7.78,9.84.38.61.78,1.23,1.2,1.84,3.54,5.52,6.72,11.18,9.76,16.98,1.98,3.68,3.47,6.37,7.43,8.14,5.45,1.49,10.97,1.63,16.56,1.63h2.34c6.27.05,12.12-1.25,17.55-3.89,1.77-1.98,2.97-3.75,4.17-6.09.42-.78.85-1.56,1.27-2.41.21-.42.42-.85.64-1.27,3.4-6.37,6.93-12.67,11.11-18.54.33-.52.68-1.01,1.06-1.49.38-.47,1.27-1.58,2.69-3.33h2.12c-2.97,6.16-6.09,12.24-9.48,18.19-1.56,2.69-3.04,5.45-4.53,8.21-.33.66-.68,1.3-1.06,1.91-.64,1.27-1.27,2.48-1.98,3.75-2.12,3.96-3.96,6.44-8.42,8-1.42.42-2.9.78-4.32,1.06-.5.14-.99.21-1.49.35-10.12,2.41-21.23,2.62-30.92-1.84-3.96-2.55-5.73-6.01-7.71-10.19-1.98-4.03-3.96-7.93-6.23-11.75-2.34-4.1-4.6-8.21-6.79-12.31-.28-.5-.57-1.06-.85-1.56-1.27-2.45-1.91-4.2-1.91-5.24"/>
    <g id="Mouth">
      <path class="cls-5" d="M213.13,525.23c1.98,1.56,3.11,2.69,4.25,4.95.57-.66,1.13-1.34,1.7-2.05,1.49-1.84,2.34-2.76,4.74-3.04,5.45-.14,8.99.92,13.02,4.6,1.42,2.55,1.56,4.74,1.06,7.64-1.91,4.1-5.31,6.44-9.2,8.49-7.78,2.69-16.42,2.12-24.06-.71-3.47-1.91-5.09-4.81-6.37-8.49-.42-2.19-.35-3.4,0-5.66.7-.93,1.45-1.75,2.25-2.46,3.44-3.08,7.72-4.12,12.61-3.2"/>
      <path class="cls-1" d="M198.23,533.78l.71,1.42h1.42v1.42c.5.14.92.28,1.42.42,2.41,1.13,4.25,2.55,6.3,4.1,2.05,1.49,4.17,2.69,6.44,3.89l.14,2.02c-2.2.07-4.29-.18-6.27-.68-.86-.22-1.69-.5-2.51-.79-1.07-.37-2.09-1.04-3.17-1.67-2.9-2.97-4.46-6.01-4.46-10.19"/>
      <path class="cls-6" d="M236.13,540.77l-.4,1.51c-.85.71-1.82,1.44-2.9,2.19l-1.63,1.06c-3.68,1.98-6.93,2.62-11.11,2.69h-1.42c-1.49.07-2.97.14-4.39.14h-2.97c-2.48.14-3.89-.73-6.51-1.36l-.92-.48-2.76-1.42.48-2.21c.57.42,1.02,1.07,1.64,1.45,5.73,3.75,13.94,2.74,20.52,2.18,4.81-1.06,8.85-2.9,12.39-6.37"/>
      <path class="cls-1" d="M203.36,528.06c-.91,1.12-1.86,2.24-2.81,3.36-.13.15-.32.24-.51.24h-.67c-.27,0-.51.16-.61.4l-.78,1.74c.02-.27,0-.51.03-.77.04-.33.06-.68.1-1,.02-.19.05-.38.06-.57,0-.28.12-.54.3-.76.22-.27.48-.57.68-.82.49-.59,1.22-1.18,1.86-1.81.36-.36.93-.69,1.44-1.02.2-.13.72-.5.71-.28l-.03.26c.39.19.5.69.23,1.03Z"/>
      <path class="cls-1" d="M198.23,533.78l.71,1.42h1.42c.5.92.99,1.77,1.49,2.69.28.52.57,1.04.85,1.56.28.52-.04,2.22-.41,4.06-.47-.43-.82-.92-1.2-1.35-1.38-1.55-2.18-3.25-2.84-5.47l-.19-1.19-.07-.77-.03-.72.3-.22Z"/>
    </g>
    <path class="cls-13" d="M136.67,480.71c5.02,1.42,9.62,3.25,14.22,5.73.5.21.92.5,1.42.71,2.26,1.2,3.47,1.98,4.88,4.17-1.6.99-3,1.39-4.17,1.2-2.41-.78-4.32-2.41-6.3-3.89-3.25-2.41-6.51-4.53-10.05-6.51v-1.42Z"/>
    <path class="cls-9" d="M298,481.42c-2.48,2.62-5.31,4.74-8.49,6.37-1.6-.05-3.02-.28-4.25-.71h-2.12c2.19-1.84,4.39-2.9,7.01-4.03.71-.28,1.44-.59,2.19-.92,2.05-.71,3.54-.85,5.66-.71"/>
    <path class="cls-13" d="M136.67,480.71c1.34.42,2.69.85,4.1,1.34.78.21,1.49.5,2.26.71,1.77.64,3.4,1.2,4.95,2.19.38.99.61,1.93.71,2.83l-2.12.71c-1.77-.92-3.47-1.98-5.09-3.04-.5-.28-.92-.57-1.42-.92-1.13-.78-2.26-1.56-3.4-2.41v-1.42h0Z"/>
    <path class="cls-24" d="M126.05,477.17h24.77v.71h-17.69v1.42l-7.08-1.42v-.71Z"/>
    <path class="cls-9" d="M151.53,487.08c1.89,1.18,3.77,2.36,5.66,3.54l-2.83,1.42v-1.42h-2.83v-3.54Z"/>
    <path class="cls-24" d="M309.67,476.21l-7.08,1.42v-1.42s-17.69,0-17.69,0v-.71h24.77v.71Z"/>
    <path class="cls-26" d="M174.88,511.14c2.34,2.19,4.1,4.25,5.66,7.08-.47.24-.94.47-1.42.71-2.12-1.84-3.11-3.82-4.25-6.37v-1.42Z"/>
    <path class="cls-26" d="M259.79,510.5l.76,2.19c-.64,1.27-1.11,2.56-1.88,3.75-.38.71-.71,1.41-1.08,2.17s-1.66,1.54-3.45,2.44c-.99.92-2.52,1.38-3.44,2.37,1.66-2.72,3.19-5.11,5.17-7.66.28-.42.62-.79.98-1.21.71-.92,1.53-1.89,2.24-2.81l.71-1.22Z"/>
    <path class="cls-19" d="M253.42,473.53c4.72,1.89,7.67,3.14,8.84,3.75,1.18.61,2.31.52,3.4-.28.57-.42,1.06-.85,1.63-1.27,1.98-1.46,3.47-2.19,4.46-2.19-.24.42-.45.85-.64,1.27-1.7,3.61-1.42,6.86-1.27,10.83-.21,2.48-.92,3.61-2.34,5.66-.78,1.49-1.56,3.04-2.26,4.53-5.73,10.54-15.5,15-26.61,18.4-7.36,2.12-14.36,2.76-22.01,2.76h-2.26c-6.7-.05-11.16-.85-13.45-2.33l-13.91-4.77c-3.65-1.7-8.36-3.26-13.12-9.68,0,0-3.16-6.46-4.41-8.27s5.68-7.22,2.78-14.47c0,0,1.83-1.69,3.8-2.51,1.09-.45,2.25-1.27,3.63-1.34,0,0,1.57-1.69,5.49,7.86,1.42,3.46,2.84,5.95,2.82,7.99-.02,3.6-1.56,5.82,5.48,9.55,11.04,5.86,7.68,3.64,15.25,7.06l8.77-6.5,6.89,5.3,20.83-10.45,1.85-16.15,6.34-4.73Z"/>
  </g>
  <path class="cls-18" d="M241.05,466.19l.71,1.42c.99,1.98,2.19,2.34,4.17,3.25.64.28,1.2.57,1.84.85l1.77.85c.92.5,1.91.92,2.83,1.42-1.06,4.1-3.18,7.85-5.66,11.32h-1.42c-.28-.57-.57-1.06-.85-1.63-1.7-2.55-3.33-3.04-6.09-4.17-.85-.35-1.7-.71-2.62-1.06l-2.48-.92c-.71-.28-1.34-.5-2.05-.78-11.53-3.33-25.12-2.41-36.16,2.19-.64.21-1.2.5-1.84.71-3.4,1.49-4.88,3.18-6.65,6.37-1.42-.47-2.55-1.44-3.4-2.9-.42-.92-.92-1.84-1.34-2.76-.21-.42-.42-.92-.71-1.42-1.08-2.26-1.63-3.94-1.63-5.02l2.12-1.06c.92-.42,1.84-.92,2.76-1.34.5-.21.92-.42,1.42-.71,1.91-.92,3.54-1.77,5.09-3.33l-.71-1.42c15.71-6.23,35.73-9.76,50.95,0"/>
  <path class="cls-5" d="M241.51,466.08l.85.86c1.53,1.52,2.22,1.87,3.98,3.04.64.28.94.58,1.58.87l2.1.93c.92.5,1.43,1.7,2.35,2.2-1.06,4.1-3.18,7.85-5.66,11.32h-1.42c0-.64-.14-1.27-.14-1.91-.75-5.24-2.59-9.91-5.52-14.01-.92-.35-1.84-.71-2.76-1.06-1.27-.64-2.55-1.27-3.82-1.84-9.98-4.39-21.09-4.25-31.56-.99-2.97,1.42-5.73,3.11-8.49,4.95-.64.28-1.27.64-1.91.92-2.26,1.63-2.41,3.18-3.04,5.8-.71,2.88-1.67,4.72-2.9,5.52-.42.14-.87.28-1.34.42-.57-.85-1.13-1.77-1.7-2.62-.28-.5-.64-.99-.99-1.49-.92-1.7-1.27-3.18-1.56-5.09l2.12-1.06c.92-.42,1.84-.92,2.76-1.34.5-.21.92-.42,1.42-.71,1.91-.92,3.54-1.77,5.09-3.33l-.71-1.42c15.71-6.23,35.6-10.23,50.81-.47"/>
  <g id="Nose">
    <path class="cls-7" d="M215.78,473.49h2.19c6.93,0,13.3.99,19.81,3.61.42.14.85.35,1.34.5,3.47,1.42,6.23,3.33,7.93,6.72.14,1.08.24,2.29.28,3.61l.14,1.98c-.64,3.68-2.34,6.51-5.17,8.92-1.42.92-2.83,1.84-4.32,2.69-.5.28-.99.57-1.49.92-5.99,3.59-10.73,5.09-14.22,4.53-1.27-.99-2.34-2.05-3.33-3.33-.28-.28-.57-.64-.92-.92h-1.42c-.99,1.2-1.91,2.34-2.83,3.54-1.42.94-2.76,1.39-4.03,1.34-2.83-.71-5.24-1.91-7.85-3.18-.5-.28-.99-.5-1.49-.78-6.27-3.25-10.28-6.06-12.03-8.42-1.27-4.32-2.19-8.35-.35-12.6,7.08-7.22,18.11-9.13,27.81-9.06"/>
    <path class="cls-2" d="M215.85,480.64h5.41c.11,0,.23-.02.3.05.04.04.02.17.02.17v.25s0,.16-.03.2c-.05.06-.13.08-.21.1-.58.16-1.17.3-1.75.43-7.79,2-15.25,4.33-22.23,8.38-.36.21-.77.32-1.19.32h-.31c-.28,0-.53-.18-.63-.44l-2.43-6.68c-.13-.36.07-.76.43-.87,6.64-2.05,13.36-1.98,20.27-1.98l2.34.07Z"/>
    <path class="cls-20" d="M230.21,481.98h6.51c1.77,0,3.61,0,5.38.07l-2.12,6.37c-2.55-.42-4.88-1.13-7.36-2.05-2.97-1.13-5.87-2.05-8.92-2.9,2.26-1.34,3.89-1.56,6.51-1.56"/>
    <path class="cls-6" d="M194.69,477.88l1.42.71c-.42,0-.85.14-1.34.14-1.08.24-1.82.85-2.19,1.84-.21.5-.5,1.06-.71,1.56-.94,1.04-1.89,1.98-2.83,2.83h-1.42c.99-3.11,2.26-4.53,4.95-6.37l2.12-.71h0Z"/>
    <path class="cls-6" d="M239.98,478.59c2.69.71,4.43,1.67,5.24,2.9.14.42.28.87.42,1.34-2.69-.71-4.43-1.67-5.24-2.9-.14-.42-.28-.85-.42-1.34"/>
  </g>
  <g id="Right_Arm">
    <path class="cls-18" d="M317.32,523.87c1.91.99,3.75,1.98,5.59,3.04.71.35,1.34.78,2.05,1.13,10.47,5.87,20.73,11.89,30.36,19.18.38.28.78.57,1.2.85,11.25,8.49,21.65,17.62,31.63,27.53.57.5,1.06,1.06,1.63,1.56,3.11,3.11,5.87,6.3,8.42,9.76.38.56.83,1.02,1.36,1.4.23.16.44.34.7.47.19.09.31.26.32.47,0,.18.05.34.06.51.12,2.95.18,5.86.25,8.83,0,1.06,0,2.19.07,3.25.28,6.84-.61,11.42-2.69,13.73-.85.78-1.77,1.56-2.69,2.34-.57.64-1.2,1.34-1.77,1.98-1.56,1.77-3.18,3.47-4.81,5.24-.78.85-1.63,1.77-2.41,2.62-20.52,22.64-55.69,29.79-84.77,34.96-.71.14-1.34.21-2.05.35-3.25.57-6.3.99-9.62.85v-.71c.35-.07.78-.14,1.2-.28,40.97-8.7,75.57-25.69,103.52-57.1-3.25-1.49-6.65-2.19-10.12-2.9-.57-.14-1.2-.28-1.77-.42-1.49-.28-2.9-.64-4.39-.92,2.76-2.26,5.87-3.82,9.06-5.45.57-.28,1.13-.57,1.7-.92,1.34-.71,2.76-1.42,4.1-2.19v-1.42c-3.44-1.27-6.91-2.52-10.4-3.75-3.75-1.34-7.57-2.69-11.32-4.17-6.72-2.55-12.1-4.03-19.32-3.4l-3.89.14c-1.42,0-2.83.07-4.25.14h-2.05l-1.98.14h-1.77c-4.32.57-6.65,2.76-9.55,5.8-.42.42-.78.85-1.2,1.27-1.27,1.27-2.55,2.62-3.89,3.96-1.7,1.7-3.4,3.47-5.09,5.17l-1.2,1.27c-2.9,2.9-5.87,5.66-9.06,8.35-1.06.99-2.12,1.91-3.11,2.9-12.24,11.04-26.18,19.32-40.47,27.38-.78.42-1.56.85-2.34,1.34-.71.42-1.42.78-2.19,1.2-.61.38-1.25.73-1.91,1.06s-1.91.59-3.75.78c.35-.5.71-.92,1.06-1.42,9.27-12.24,18.11-24.7,26.53-37.5.42-.64.78-1.2,1.2-1.84,1.27-1.91,2.55-3.82,3.82-5.8.42-.64.85-1.2,1.2-1.84.35-.57.78-1.13,1.13-1.77.35-.5.71-1.06.99-1.56,1.84-3.04,1.7-6.16,1.77-9.55v-1.77c.07-1.91.14-3.82.14-5.66,0-1.27,0-2.55.07-3.89l.21-9.48c2.69.35,5.09.92,7.64,1.98.64.21,1.2.5,1.84.78.64.28,1.27.5,1.84.78,3.73,1.56,7.5,3,11.32,4.32-5.02-5.45-10.05-10.83-15.28-15.99-1.98-1.98-3.96-3.96-5.94-5.87l-1.84-1.84-1.63-1.63c-1.49-1.63-2.48-3.25-3.54-5.09,4.32-2.69,8.7-5.38,13.02-8.07,1.56-.92,3.04-1.91,4.53-2.9.71-.42,1.42-.92,2.19-1.34.57-.35,1.2-.78,1.84-1.13,3.04-1.13,5.45-.57,8.42.71"/>
    <path class="cls-5" d="M315.64,523.13c3.77,1.7,6.2,3.3,7.29,4.81.71,2.05.5,3.68.28,5.87-.07.85-.14,1.63-.21,2.48-.14,1.42-.28,2.83-.5,4.32-.21,1.7-.35,3.47-.5,5.17-.07.64-.14,1.27-.21,1.91-.35,4.39.42,6.51,3.11,9.98.57.57,1.06,1.2,1.63,1.84.8,1.23,1.13,2.5.99,3.82-.92,3.89-2.62,7.5-4.17,11.18-.57,1.42-1.2,2.76-1.77,4.17-3.47,8.14-8.07,15.07-13.8,21.79-.57.71-1.2,1.42-1.77,2.12-.57.64-1.06,1.27-1.63,1.91-.42.5-.85.99-1.34,1.56-1.77,1.98-3.47,3.96-5.31,5.94l-1.77,1.91c-.57.57-1.06,1.13-1.63,1.7-.94,1.04-1.58,2.19-1.91,3.47-1.42,2.9-3.96,4.1-6.65,5.66-.57.38-1.16.75-1.77,1.13-6.72,4.1-13.52,7.85-20.38,11.68-2.19,1.27-4.25,2.62-6.3,4.03-.35.21-.71.35-1.13.57l-1.42-.71c.35-.5.71-.92,1.06-1.42,9.2-12.24,18.11-24.7,26.53-37.5l1.2-1.84c1.27-1.91,2.55-3.82,3.82-5.8.42-.64.85-1.2,1.2-1.84.35-.57.78-1.13,1.13-1.77.35-.5.71-.99.99-1.56,1.84-3.04,1.7-6.16,1.77-9.62v-1.77l.14-5.66c0-1.27,0-2.55.07-3.82.07-3.18.14-6.3.21-9.48,2.69.35,5.09.92,7.64,1.98.64.21,1.2.5,1.84.71.64.28,1.27.5,1.91.78,2.84,1.19,5.98,2.37,9,3.45.94.34,2.09.75,2.7.82-.55-.6-1.48-1.15-2.03-1.74-4.48-4.84-8.97-9.61-13.63-14.21-.35-.35-.71-.64-.99-.99-1.63-1.63-3.33-3.25-4.95-4.88l-1.84-1.84c-.57-.5-1.06-1.06-1.63-1.56-1.42-1.63-2.48-3.25-3.54-5.09,4.32-2.69,8.7-5.38,13.02-8.07,1.56-.92,3.04-1.91,4.53-2.9,4.34-2.74,7.93-3.56,10.76-2.48"/>
    <path class="cls-4" d="M322.16,527.34c3.82,1.06,7.01,2.9,10.47,4.88.57.33,1.16.68,1.77,1.06,19.88,11.75,37.5,26.18,53.85,42.39.5.5,1.06,1.06,1.63,1.56,3.47,3.47,6.19,6.8,9.09,10.77-.47.24-.45.16-.95.33-.84.02-1.29.08-2.22-.33-.38-.16-.92-.33-1.46-.72-.71-.35-1.49-.78-2.19-1.13-.78-.42-1.56-.85-2.34-1.27s-1.63-.85-2.41-1.27c-5.02-2.69-10.05-5.45-15-8.21-5.24-2.97-10.61-5.59-16.06-8.14-5.31-2.62-9.2-5.09-12.67-10.05-2.05-2.9-4.17-5.8-6.3-8.56-.28-.35-.57-.78-.85-1.13-1.34-1.77-2.69-3.47-4.1-5.24-1.27-1.63-2.48-3.18-3.75-4.81-.42-.5-.78-.99-1.2-1.56-2.12-2.69-3.82-5.31-5.24-8.42"/>
    <path class="cls-18" d="M302.24,606.66l.71,1.42-.71,2.12,1.42.71c-1.49,1.27-2.9,2.55-4.39,3.82-.42.38-.85.73-1.27,1.06-2.26,1.98-4.25,3.4-7.15,4.32,2.12-3.4,4.53-6.23,7.22-9.13.38-.42.78-.85,1.2-1.27.99-.99,1.91-2.05,2.9-3.04"/>
    <path class="cls-16" d="M384.33,598.17l1.42.71-2.12.71v1.42h1.42v1.42h7.08v1.42c1.42.24,2.83.47,4.25.71-2.41.78-3.96.64-6.37,0-.64-.14-1.34-.28-1.98-.5-.71-.14-1.34-.35-2.05-.57-.71-.14-1.42-.35-2.12-.5-1.7-.42-3.47-.85-5.17-1.27,2.36-1.79,4.25-2.97,5.66-3.54"/>
    <path class="cls-15" d="M394.16,581.87c.47.58.88.95,1.32,1.44,1.04,1.17,2.04,2.61,2.9,3.66.16.2.37.46.53.68.11.15,1.47,1.17,1.54,1.29.25.41-2.99-.36-3.45-.51-2.77-.94-4.42-1.92-6.64-3.23-.49-.29-1-.55-1.56-.87.42-.07.85-.18,1.28-.32,1.18-.28,2.41-.9,3.68-1.84l.41-.3Z"/>
    <path class="cls-3" d="M387.16,603.83c.99.07,2.05.14,3.04.28.57,0,1.13.05,1.7.14.57.09,1.82.66,3.75,1.7l-6.37,6.37c.42-2.34,1.13-3.33,2.83-4.95v-1.42l-4.95-1.42v-.71h0Z"/>
    <path class="cls-3" d="M312.22,563.45l.75.74,3.42,2.85c-.27.15-.66.01-1.05-.14-.47-.19-1.08-.38-1.71-.59-.65-.29-1.84-.67-1.81-.65l-1.93-.7-1.54-.6c1.79-.52,2.74-.03,3.78.49v-1.47l.07.08Z"/>
    <path class="cls-5" d="M293.05,559.25c1.42.24,2.83.47,4.25.71l-1.42,1.42-1.42-.71v7.78h-.71l-.71-9.2Z"/>
    <path class="cls-22" d="M298,612.32l2.12,1.42c-3.92,3.63-6.98,5.76-9.2,6.37,1.79-2.74,3.21-4.62,4.25-5.66h2.83v-2.12Z"/>
    <path class="cls-16" d="M323.47,655.49l-2.83,1.42,2.83,1.42c-7.78,1.77-15.57,3.47-23.42,4.81-.5.07-.99.14-1.56.28-2.83.42-5.52.64-8.35.57v-.71c.35-.07.78-.14,1.2-.28,8.63-1.84,17.12-3.96,25.54-6.72.64-.21,1.27-.42,1.98-.64.57-.21,1.13-.35,1.77-.57.94-.19,1.89-.05,2.83.42"/>
    <path class="cls-18" d="M327.72,654.78v1.42c-3.18,1.56-5.73,1.56-9.2,1.42,3.33-2.19,5.17-3.04,9.2-2.83"/>
    <path class="cls-16" d="M314.27,658.32v2.12c-3.04.64-5.45.64-8.49,0,4.1-2.22,6.93-2.92,8.49-2.12"/>
  </g>
  <g id="Left_Arm">
    <path class="cls-18" d="M125.33,526.29c2.97-1.27,5.38-1.84,8.42-.71.64.35,1.27.78,1.84,1.13.78.42,1.49.92,2.19,1.34,1.49.99,2.97,1.98,4.53,2.9,4.32,2.69,8.7,5.38,13.02,8.07-1.06,1.84-2.05,3.47-3.54,5.09l-1.63,1.63-1.84,1.84c-1.98,1.91-3.96,3.89-5.94,5.87-5.24,5.17-10.26,10.54-15.28,15.99,3.82-1.32,7.59-2.76,11.32-4.32.57-.28,1.2-.5,1.84-.78.64-.28,1.2-.57,1.84-.78,2.55-1.06,4.95-1.63,7.64-1.98l.21,9.48c.07,1.34.07,2.62.07,3.89,0,1.84.07,3.75.14,5.66v1.77c.07,3.4-.07,6.51,1.77,9.55.28.5.64,1.06.99,1.56.35.64.78,1.2,1.13,1.77.35.64.78,1.2,1.2,1.84,1.27,1.98,2.55,3.89,3.82,5.8.42.64.78,1.2,1.2,1.84,8.42,12.81,17.27,25.26,26.53,37.5.35.5.71.92,1.06,1.42-1.84-.19-3.09-.45-3.75-.78s-1.3-.68-1.91-1.06c-.78-.42-1.49-.78-2.19-1.2-.78-.5-1.56-.92-2.34-1.34-14.29-8.07-28.23-16.35-40.47-27.38-.99-.99-2.05-1.91-3.11-2.9-3.18-2.69-6.16-5.45-9.06-8.35l-1.2-1.27c-1.7-1.7-3.4-3.47-5.09-5.17-1.34-1.34-2.62-2.69-3.89-3.96-.42-.42-.78-.85-1.2-1.27-2.9-3.04-5.24-5.24-9.55-5.8h-1.77s-1.98-.14-1.98-.14h-2.05c-1.42-.07-2.83-.14-4.25-.14l-3.89-.14c-7.22-.64-12.6.85-19.32,3.4-3.75,1.49-7.57,2.83-11.32,4.17-3.49,1.23-6.96,2.48-10.4,3.75v1.42c1.34.78,2.76,1.49,4.1,2.19.57.35,1.13.64,1.7.92,3.18,1.63,6.3,3.18,9.06,5.45-1.49.28-2.9.64-4.39.92-.57.14-1.2.28-1.77.42-3.47.71-6.86,1.42-10.12,2.9,27.95,31.42,62.55,48.4,103.52,57.1.42.14.85.21,1.2.28v.71c-3.33.14-6.37-.28-9.62-.85-.71-.14-1.34-.21-2.05-.35-29.08-5.17-64.25-12.31-84.77-34.96-.78-.85-1.63-1.77-2.41-2.62-1.63-1.77-3.25-3.47-4.81-5.24-.57-.64-1.2-1.34-1.77-1.98-.92-.78-1.84-1.56-2.69-2.34-2.08-2.31-2.97-6.89-2.69-13.73.07-1.06.07-2.19.07-3.25.06-2.96.13-5.87.25-8.83,0-.18.05-.34.06-.51,0-.21.13-.37.32-.47.26-.13.47-.31.7-.47.53-.37.98-.84,1.36-1.4,2.55-3.47,5.31-6.65,8.42-9.76.57-.5,1.06-1.06,1.63-1.56,9.98-9.91,20.38-19.03,31.63-27.53.42-.28.83-.57,1.2-.85,9.62-7.29,19.88-13.3,30.36-19.18.71-.35,1.34-.78,2.05-1.13,1.84-1.06,3.68-2.05,5.59-3.04"/>
    <path class="cls-5" d="M126.82,525.86c2.83-1.08,6.42-.26,10.76,2.48,1.49.99,2.97,1.98,4.53,2.9,4.32,2.69,8.7,5.38,13.02,8.07-1.06,1.84-2.12,3.47-3.54,5.09-.57.5-1.06,1.06-1.63,1.56l-1.84,1.84c-1.63,1.63-3.33,3.25-4.95,4.88-.28.35-.64.64-.99.99-5.24,5.17-10.26,10.54-15.28,15.99,3.82-1.32,7.59-2.76,11.32-4.32.64-.28,1.27-.5,1.91-.78.64-.21,1.2-.5,1.84-.71,2.55-1.06,4.95-1.63,7.64-1.98.07,3.18.14,6.3.21,9.48.07,1.27.07,2.55.07,3.82l.14,5.66v1.77c.07,3.47-.07,6.58,1.77,9.62.28.57.64,1.06.99,1.56.35.64.78,1.2,1.13,1.77.35.64.78,1.2,1.2,1.84,1.27,1.98,2.55,3.89,3.82,5.8l1.2,1.84c8.42,12.81,17.34,25.26,26.53,37.5.35.5.71.92,1.06,1.42l-1.42.71c-.42-.21-.78-.35-1.13-.57-2.05-1.42-4.1-2.76-6.3-4.03-6.86-3.82-13.66-7.57-20.38-11.68-.61-.38-1.2-.75-1.77-1.13-2.69-1.56-5.24-2.76-6.65-5.66-.33-1.27-.97-2.43-1.91-3.47-.57-.57-1.06-1.13-1.63-1.7l-1.77-1.91c-1.84-1.98-3.54-3.96-5.31-5.94-.5-.57-.92-1.06-1.34-1.56-.57-.64-1.06-1.27-1.63-1.91-.57-.71-1.2-1.42-1.77-2.12-5.73-6.72-10.33-13.66-13.8-21.79-.57-1.42-1.2-2.76-1.77-4.17-1.56-3.68-3.25-7.29-4.17-11.18-.14-1.32.19-2.59.99-3.82.57-.64,1.06-1.27,1.63-1.84,2.69-3.47,3.47-5.59,3.11-9.98-.07-.64-.14-1.27-.21-1.91-.14-1.7-.28-3.47-.5-5.17-.21-1.49-.35-2.9-.5-4.32-.07-.85-.14-1.63-.21-2.48-.21-2.19-.42-3.82.28-5.87,1.08-1.51,3.51-3.11,7.29-4.81"/>
    <path class="cls-4" d="M120.34,529.97c-1.42,3.11-3.11,5.73-5.24,8.42-.42.57-.78,1.06-1.2,1.56-1.27,1.63-2.48,3.18-3.75,4.81-1.42,1.77-2.76,3.47-4.1,5.24-.28.35-.57.78-.85,1.13-2.12,2.76-4.25,5.66-6.3,8.56-3.47,4.95-7.36,7.43-12.67,10.05-5.45,2.55-10.83,5.17-16.06,8.14-4.95,2.76-9.98,5.52-15,8.21-.78.42-1.63.85-2.41,1.27s-1.56.85-2.34,1.27c-.71.35-1.49.78-2.19,1.13-.54.39-1.09.55-1.46.72-.94.41-1.39.35-2.22.33-.5-.18-.48-.1-.95-.33,2.9-3.96,5.63-7.3,9.09-10.77.57-.5,1.13-1.06,1.63-1.56,16.35-16.2,33.96-30.64,53.85-42.39.61-.38,1.2-.73,1.77-1.06,3.47-1.98,6.65-3.82,10.47-4.88"/>
    <path class="cls-15" d="M48.03,585.76c1.27.94,2.5,1.56,3.68,1.84.42.14.85.25,1.28.32-.56.32-1.08.58-1.56.87-2.22,1.3-3.87,2.29-6.64,3.23-.46.15-3.71.92-3.45.51.07-.12,1.43-1.14,1.54-1.29.16-.22.36-.48.53-.68.86-1.05,1.85-2.49,2.9-3.66.43-.49.84-.86,1.32-1.44l.41.3Z"/>
  </g>
  <g id="V_Shape_Bottom">
    <g id="Left">
      <path class="cls-5" d="M147.21,633.76c2.69,2.48,5.38,4.88,8.42,6.86,1.63,1.06,3.25,2.12,4.81,3.25,8.42,6.09,16.91,12.17,26.46,16.35.85.35,1.63.64,2.41.99,1.63.64,3.25,1.34,4.81,1.98,5.24,1.98,8.84,3.54,11.68,8.49.28.64.57,1.13.85,1.7.78,1.56,1.56,3.04,2.19,4.6.21.57.42,1.06.64,1.63,2.55,6.09,4.46,12.24,6.16,18.61.78,2.69,1.49,5.38,2.26,8.07.35,1.2.71,2.41,1.06,3.68.21.57.35,1.06.5,1.63v6.1c-.42-1.04-2.64-1.01-3.68-1.71-1.27-.99-2.41-1.91-3.61-2.9-.57-.5-1.06-.92-1.56-1.34-.99-.85-1.86-1.65-2.62-2.41l-.97-.82c-.69-.65-.78-.9-1.44-1.51-1.63-1.77-3.25-3.54-5.09-5.09-3.33-2.9-6.44-5.87-9.55-8.92l-1.77-1.77c-4.88-4.88-9.62-9.91-14.01-15.21-.57-.71-1.13-1.42-1.7-2.12-2.97-3.68-5.8-7.5-8.49-11.39-.78-1.06-1.49-2.19-2.26-3.25-3.61-5.09-7.15-10.26-10.54-15.57-.35-.64-.78-1.27-1.13-1.84-.35-.64-.78-1.2-1.13-1.77s-.71-1.06-1.06-1.63c-1.2-1.91-1.56-2.55-1.56-4.88"/>
      <path class="cls-23" d="M146.86,633.65c5.09,4.1,8.7,8.28,12.31,13.59,1.63,2.41,3.33,4.67,5.02,7.01.35.42.71.92,1.06,1.42,1.91,2.62,3.89,5.17,6.01,7.71,3.47,4.03,6.72,8.21,9.84,12.6,2.97,4.03,5.87,8.07,9.06,11.96,2.05,2.55,3.75,4.81,4.81,7.93-.94,0-1.79-.31-2.55-.92l-1.34-1.34-1.49-1.49-1.63-1.63c-8.56-8.7-16.49-17.9-23.42-27.95-.78-1.06-1.49-2.19-2.26-3.25-3.61-5.09-7.15-10.26-10.54-15.57-.35-.64-.78-1.27-1.13-1.84-.35-.64-.78-1.2-1.13-1.77s-.71-1.06-1.06-1.63c-1.2-1.91-1.56-2.55-1.56-4.88"/>
      <path class="cls-27" d="M186.06,684.5v2.12s2.83,0,2.83,0c2.9,2.48,5.31,5.52,6.37,9.2-1.09,0-2.59-.97-4.53-2.9l-1.2-1.2c-.42-.35-.85-.78-1.2-1.13-.35-.42-.78-.78-1.13-1.13-1.56-1.56-2.12-2.76-2.55-4.95h1.42s0,0,0,0Z"/>
      <path class="cls-17" d="M191.72,689.45c1.63,1.98,2.69,3.89,3.54,6.37h-1.42c-1.2-1.13-2.41-2.34-3.54-3.54l1.42-2.83"/>
    </g>
    <g id="Right">
      <path class="cls-5" d="M291.63,633.55c0,2.34-.35,2.97-1.56,4.88-.35.57-.71,1.06-1.06,1.63s-.78,1.13-1.13,1.77c-.35.57-.78,1.2-1.13,1.84-3.4,5.31-6.93,10.47-10.54,15.57-.78,1.06-1.49,2.19-2.26,3.25-2.69,3.89-5.52,7.71-8.49,11.39-.57.71-1.13,1.42-1.7,2.12-4.39,5.31-9.13,10.33-14.01,15.21l-1.77,1.77c-3.11,3.04-6.23,6.01-9.55,8.92-1.84,1.56-3.47,3.33-5.09,5.09-.66.61-.75.86-1.44,1.51l-.97.82c-.75.75-1.63,1.56-2.62,2.41-.5.42-.99.85-1.56,1.34-1.2.99-2.34,1.91-3.61,2.9-1.04.71-3.25.68-3.68,1.71v-6.1c.14-.57.28-1.06.5-1.63.35-1.27.71-2.48,1.06-3.68.78-2.69,1.49-5.38,2.26-8.07,1.7-6.37,3.61-12.52,6.16-18.61.21-.57.42-1.06.64-1.63.64-1.56,1.42-3.04,2.19-4.6.28-.57.57-1.06.85-1.7,2.83-4.95,6.44-6.51,11.68-8.49,1.56-.64,3.18-1.34,4.81-1.98.78-.35,1.56-.64,2.41-.99,9.55-4.17,18.04-10.26,26.46-16.35,1.56-1.13,3.18-2.19,4.81-3.25,3.04-1.98,5.73-4.39,8.42-6.86"/>
      <path class="cls-23" d="M292.05,633.58c0,2.34-.35,2.97-1.56,4.88-.35.57-.71,1.06-1.06,1.63s-.78,1.13-1.13,1.77c-.35.57-.78,1.2-1.13,1.84-3.4,5.31-6.93,10.47-10.54,15.57-.78,1.06-1.49,2.19-2.26,3.25-6.93,10.05-14.86,19.25-23.42,27.95l-1.63,1.63-1.49,1.49-1.34,1.34c-.75.61-1.6.92-2.55.92,1.06-3.11,2.76-5.38,4.81-7.93,3.18-3.89,6.09-7.93,9.06-11.96,3.11-4.39,6.37-8.56,9.84-12.6,2.12-2.55,4.1-5.09,6.01-7.71.35-.5.71-.99,1.06-1.42,1.7-2.34,3.4-4.6,5.02-7.01,3.61-5.31,7.22-9.48,12.31-13.59"/>
      <path class="cls-27" d="M252.71,684.5h1.42c-.42,2.19-.99,3.4-2.55,4.95-.35.35-.78.71-1.13,1.13-.35.35-.78.78-1.2,1.13l-1.2,1.2c-1.93,1.93-3.44,2.9-4.53,2.9,1.06-3.68,3.47-6.72,6.37-9.2h2.83v-2.12h0Z"/>
      <path class="cls-17" d="M247.05,689.45l1.42,2.83c-1.13,1.2-2.34,2.41-3.54,3.54h-1.42c.85-2.48,1.91-4.39,3.54-6.37"/>
    </g>
  </g>
  <path id="Hat2" class="cls-10" d="M75.32,369.51c3.16.85,144.26-60.7,282.12,1.57"/>
  <g>
    <path class="cls-12" d="M439.09,440.98h27.09c20.39,0,30.2,7.09,30.2,28.64v34.06c0,19.32-5.6,29.89-26.62,29.89h-30.67v-92.58ZM463.84,517.01h2.18c3.89,0,5.29-1.95,5.29-6.12v-47.4c0-4.87-2.02-5.98-5.45-5.98h-2.02v59.5Z"/>
    <path class="cls-12" d="M560.52,514.37c0,10.42.31,15.43.78,19.18h-23.66c-.78-1.11-1.25-4.45-1.4-5.84-3.74,5.28-9.34,6.81-15.1,6.81-12.92,0-17.9-10.29-17.9-22.1v-1.53c0-19.74,14.63-24.33,30.98-24.33h1.25v-8.34c0-4.03-1.09-5-3.27-5s-3.27,1.25-3.27,5.7v3.06h-23.2v-1.95c0-16.68,10.12-22.52,27.71-22.52,16.5,0,27.09,5.42,27.09,19.74v37.12ZM535.45,500.61h-1.09c-4.05,0-6.38,2.5-6.38,8.34v.56c0,5.7,1.56,7.23,3.89,7.23,2.65,0,3.58-2.08,3.58-5.84v-10.29Z"/>
    <path class="cls-12" d="M589.63,508.39v3.61c0,4.59.93,6.95,3.58,6.95,1.56,0,2.8-1.11,2.8-4.31,0-3.89-.78-5.84-9.96-10.98-14.17-7.92-18.06-13.21-18.06-24.19,0-14.73,9.03-21.96,25.84-21.96,23.35,0,25.69,11.96,25.69,21.55v3.75h-21.48v-4.17c0-4.45-.62-5.98-3.11-5.98-2.02,0-3.11,1.25-3.11,4.59,0,3.06,2.18,4.87,9.03,8.48,15.88,8.48,19.93,15.71,19.93,24.88,0,14.87-5.29,24.19-26.93,24.19-24.91,0-26.31-13.76-26.31-24.6v-1.81h22.11Z"/>
    <path class="cls-12" d="M652.52,436.81v27.25c3.27-3.89,8.56-6.53,15.41-6.53,13.08,0,17.13,7.92,17.13,18.91v57.13h-25.07v-52.27c0-3.06-.47-5.42-3.42-5.42-2.49,0-4.05,1.25-4.05,6.95v50.74h-24.75v-96.75h24.75Z"/>
    <path class="cls-12" d="M746.71,504.64v5.56c0,15.29-5.29,24.6-27.25,24.6-18.84,0-26.31-7.65-26.31-25.44v-27.38c0-14.46,7.47-24.46,27.4-24.46,22.11,0,26.62,11.4,26.62,23.77v5.42h-23.04v-6.67c0-4.17-.62-5.84-3.11-5.84-2.8,0-3.11,2.08-3.11,5.56v32.67c0,3.61.62,5.42,3.11,5.42,2.65,0,3.11-2.08,3.11-6.67v-6.53h22.57Z"/>
    <path class="cls-12" d="M754.33,484.21c0-13.34-.16-21.69-.31-25.58h23.82c.31,1.95.78,6.53.78,9.31,2.33-5.84,7.78-10.29,15.41-10.43v25.72c-10.74,0-14.95,2.22-14.95,9.31v41.01h-24.75v-49.35Z"/>
    <path class="cls-12" d="M857.55,507.28c0,14.46,0,21.82.31,26.27h-23.98c-.47-1.95-.62-4.31-.78-5.84-4.36,5.28-9.65,7.09-16.04,7.09-8.56,0-16.5-3.48-16.5-18.91v-57.27h24.75v52.68c0,3.2.93,5.14,3.58,5.14,3.11,0,3.89-1.95,3.89-6.67v-51.15h24.75v48.65Z"/>
    <path class="cls-12" d="M866.26,436.81h24.75v17.24h-24.75v-17.24ZM866.26,458.63h24.75v74.92h-24.75v-74.92Z"/>
    <path class="cls-12" d="M920.13,508.39v3.61c0,4.59.93,6.95,3.58,6.95,1.56,0,2.8-1.11,2.8-4.31,0-3.89-.78-5.84-9.96-10.98-14.17-7.92-18.06-13.21-18.06-24.19,0-14.73,9.03-21.96,25.84-21.96,23.35,0,25.69,11.96,25.69,21.55v3.75h-21.48v-4.17c0-4.45-.62-5.98-3.11-5.98-2.02,0-3.11,1.25-3.11,4.59,0,3.06,2.18,4.87,9.03,8.48,15.88,8.48,19.93,15.71,19.93,24.88,0,14.87-5.29,24.19-26.93,24.19-24.91,0-26.31-13.76-26.31-24.6v-1.81h22.11Z"/>
    <path class="cls-12" d="M982.71,501.17v11.4c0,3.89.93,5.42,3.42,5.42,2.65,0,3.89-1.25,3.89-5.84v-4.17h23.82v2.36c0,14.32-6.38,24.46-28.33,24.46-20.08,0-27.87-8.62-27.87-24.46v-28.5c0-16.54,11.68-24.33,28.33-24.33s28.02,6.95,28.02,24.33v19.32h-31.29ZM989.87,487.4v-7.65c0-3.75-.47-5.98-3.58-5.98-2.49,0-3.58,2.08-3.58,5.98v7.65h7.16Z"/>
    <path class="cls-11" d="M634.93,570.98h27.09c20.39,0,30.2,7.09,30.2,28.64v34.06c0,19.32-5.6,29.89-26.62,29.89h-30.67v-92.58ZM659.68,647.01h2.18c3.89,0,5.29-1.95,5.29-6.12v-47.4c0-4.87-2.02-5.98-5.45-5.98h-2.02v59.5Z"/>
    <path class="cls-11" d="M725.38,631.17v11.4c0,3.89.93,5.42,3.42,5.42,2.65,0,3.89-1.25,3.89-5.84v-4.17h23.82v2.36c0,14.32-6.38,24.46-28.33,24.46-20.08,0-27.87-8.62-27.87-24.46v-28.5c0-16.54,11.68-24.33,28.33-24.33s28.02,6.95,28.02,24.33v19.32h-31.29ZM732.54,617.4v-7.65c0-3.75-.47-5.98-3.58-5.98-2.49,0-3.58,2.08-3.58,5.98v7.65h7.16Z"/>
    <path class="cls-11" d="M786.71,588.63c1.56,16.54,3.11,42.95,3.74,52.41h.93c.93-11.82,2.96-34.06,4.83-52.41h24.6l-13.23,74.92h-33.94l-13.54-74.92h26.62Z"/>
  </g>
  <text/>
</svg>